<?xml version="1.0" encoding="utf-8"?><svg viewBox="0 0 202 60" xmlns="http://www.w3.org/2000/svg" xmlns:xlink="http://www.w3.org/1999/xlink"><style>:root>svg{display:none}:root>svg:target{display:block}</style><svg fill="none" viewBox="0 0 202 60" id="icon-cat" xmlns="http://www.w3.org/2000/svg"><g clip-path="url(#aclip0)"><path d="M59.88 24a25.61 25.61 0 10-27.37 35.2c-.58-2.09-1.17-4.4-1.69-6.85a32.31 32.31 0 004.76 2.55s.12 2.16.28 4.57c1.788.03 3.575-.127 5.33-.47a2.137 2.137 0 010-.76c.29-1.87 1.09-5.24 1.25-7.41a15.223 15.223 0 002.9-3.71l-.06.44c-.55 4.26-1.7 8.81-2.4 10.07a5.585 5.585 0 01-.83 1.15A25.64 25.64 0 0059.88 24zm-1.47 3.79c-.44.43-1.35.72-1.5-.58-.15-1.3-.19-2.21-.19-2.21s-1.93-3.43-2.65-3.47c-.72-.04-5.83 3.47-7.18 5-1.17 1.29-1.4 1.2-1.4 3.47 0 1.71.22 8.17.1 13.11l-8.15 2.17a64.006 64.006 0 01-7.8 1.72l-1-5.83h-.14L25.93 28s-3.81-1.44-5.21-1.83a3.76 3.76 0 00-4 .63 5.069 5.069 0 00-1.73 3.85c.211.465.372.95.48 1.45.05.48-1.2.43-2 .43s-.92-1.44-.29-3.13c.492-1.3 1.1-2.551 1.82-3.74a11.869 11.869 0 012.07-2.89s.14-.34 1.25-.24c1.11.1 7.28.43 7.28.43l.05-2.27a142.763 142.763 0 0120.24-1.34v1.83a22.52 22.52 0 018.14-2 .91.91 0 01.77.39c.34.43 2.41 3 2.65 3.37.672.96 1.283 1.963 1.83 3a6.243 6.243 0 01-.87 1.84v.01z" fill="#FDC305"/><path d="M56.46 21.67c.47.6.88 1.13 1 1.29.672.96 1.283 1.963 1.83 3a6.242 6.242 0 01-.86 1.78c-.44.43-1.35.72-1.5-.58-.15-1.3-.21-2.16-.21-2.16s-1.93-3.43-2.65-3.47c-.72-.04-5.83 3.47-7.18 5-1.17 1.29-1.4 1.2-1.4 3.47 0 1.5.17 6.65.13 11.23 1.81.2 4.47.7 5.27 1.88 0 0-.29-7.18 7.81-3.42 0 0 .28-9.79 11.46-7.28a43.72 43.72 0 00-13.7-10.74zm-10.53-2.32a90.441 90.441 0 00-1.4-16.53s-.15-1.3-.87-.24a14.263 14.263 0 00-1.2 4 70.88 70.88 0 00-12.82.34c-.82-2.75-2.22-4-2.89-3.67-.67.33-.75 3.28-.75 3.28l-.33 14.16a142.779 142.779 0 0120.26-1.34z" fill="#F06351"/><path d="M45.35 47.12c.13-1.07.2-2.49.24-4.06l-8.15 2.17a64.005 64.005 0 01-7.8 1.77l1.11 5c0 .11 0 .22.07.33a32.32 32.32 0 004.76 2.55 42.42 42.42 0 006.88-4.13v.06a15.22 15.22 0 002.89-3.69z" fill="#E55645"/><path d="M32 16.22c-.05-.1 1 .68 1.41.92.41.24.61.42.61.59 0 .17-.26.34-.62.34s-.92-.12-1-.26c-.08-.14.6 0 .94 0h.29A8.083 8.083 0 0132 16.22zm7.5.11s-1 1.28-1.09 1.34c-.09.06-.17.34.19.29a8.09 8.09 0 001.22-.28c.11-.06.07-.2-.12-.18-.19.02-.68.05-1 .11l.85-1.27s.03-.12-.05-.01zm-3.14 6.11a2.3 2.3 0 001.09-1c.28-.66 0-.91-.44-1a2.45 2.45 0 00-1.75.34c-.39.37-.34.73 0 1a5.16 5.16 0 001.1.66z" fill="#000"/><path d="M36 23.7a2.05 2.05 0 01-.46.6 1.73 1.73 0 01-1 .38 2.18 2.18 0 01-1.54-.44 1.999 1.999 0 01-.53-.45 1.001 1.001 0 00-.36-.25s.75 4.11 2.57 4.77c1.82.66 2.16-.76 2.21-1.14a5.63 5.63 0 00-.82-3.24c0-.3-.02-.1-.07-.23z" fill="#F06351"/><path d="M34.3 24.84a3.502 3.502 0 01-2.35-1.43.15.15 0 010-.2.14.14 0 01.2 0 3.219 3.219 0 002.11 1.31 2.11 2.11 0 001.64-1l.14-.19.1.22s.38.76 1 .8c.62.04 1.06-.42 1.63-1.29a.144.144 0 01.24.16c-.667.98-1.297 1.45-1.89 1.41A1.55 1.55 0 0136 23.9a2.26 2.26 0 01-1.7.94z" fill="#000"/><path d="M36.26 38.3a3.75 3.75 0 100-7.5 3.75 3.75 0 000 7.5z" fill="#FDC305"/><path d="M41.23 31.5l-3.13 1.31 1.15-5.63-7.5 9.76 3.13-1.31-1.15 5.64 7.5-9.77zm-7.39 3.83L38 29.92l-.81 4 2-.82L35 38.52l.81-4-1.97.81zm-1.4-1.47a1.12 1.12 0 100-2.24 1.12 1.12 0 000 2.24zm6.52 4.06a.79.79 0 100-1.58.79.79 0 000 1.58zm.96-2.17a.35.35 0 100-.7.35.35 0 000 .7z" fill="#111"/><path d="M45.88 21.16a57.467 57.467 0 00-5.09 5.21 31.877 31.877 0 01-5.31 4.9c-.22-.53-1.63-1.52-1.63-1.52s-3.14-2.15-5.2-3.84a31.894 31.894 0 01-3.14-3l-2-.11a22.63 22.63 0 0012 8.84c.86-.14 3.28-1.87 5.09-3.28a57.664 57.664 0 006-5.91 6.38 6.38 0 001.14-2c-1.14.38-1.86.71-1.86.71z" fill="#F06351"/><path d="M65.22 3.5l-8.46 9.44-1.22-1.99L63.69 0l1.53 3.5zm-2.57 13.76l5.54-4.11-.78-3.74-5.4 4.81.64 3.04zm-2.73 32.11l6.13 3.18 3.01-2.34-6.69-2.75-2.45 1.91zM1.95 5.97l3.07-3.36 9.29 9-1.22 2.28L1.95 5.97zm5.43 10.31l-4.7-3.13-2.4 3.87 5.15 2.4 1.95-3.14zm6.53 36.27L9.36 55.9l2.8 3.58 4.02-4.02-2.27-2.91z" fill="#FDC305"/><path d="M25.93 28s-3.81-1.44-5.21-1.83a3.76 3.76 0 00-4 .63 5.07 5.07 0 00-1.73 3.85c.211.465.372.95.48 1.45.05.48-1.2.43-2 .43s-.92-1.44-.29-3.13c.492-1.3 1.1-2.551 1.82-3.74-5.45 2.84-15 9.4-15 9.4a45.825 45.825 0 018.19.24c5.25.53 5 4.67 5 4.67a38.52 38.52 0 015.63-1.11c2.12-.14 2.27 2.12 2.27 2.12l.53 3.86a18.294 18.294 0 012.65-2.36 6.06 6.06 0 014.38-1.3L25.93 28z" fill="#F06351"/><path d="M85.66 42a8.29 8.29 0 01-1.4-5.19v-7.5a8.42 8.42 0 011.38-5.24c.927-1.193 2.51-1.787 4.75-1.78 2.24.007 3.757.53 4.55 1.57a6.72 6.72 0 011.33 4.49v1.76h-4.14V28.2a9.985 9.985 0 00-.13-1.5 1.68 1.68 0 00-.47-.95 1.559 1.559 0 00-1.15-.37 1.46 1.46 0 00-1.5.75 5.472 5.472 0 00-.34 2.2v9.52a4.781 4.781 0 00.39 2.2 1.48 1.48 0 001.45.73 1.35 1.35 0 001.4-.74 5.84 5.84 0 00.31-2.19v-2h4.14v1.73A7.25 7.25 0 0195 42.19c-.88 1.1-2.4 1.64-4.56 1.64-2.16 0-3.85-.6-4.78-1.83zm16.25-19.42h4.74l4 21h-3.94l-.71-4.64h-3.32l-.8 4.61h-4l4.03-20.97zm3.65 13.72l-1.26-8.44-1.25 8.44h2.51zm8.16-10.56h-3.24v-3.16h10.72v3.16H118v17.81h-4.29l.01-17.81z" fill="#111"/><path d="M129.61 22.58h8.13v2.18h-5.2v6.93h4.22v2.07h-4.22v7.69h5.25v2.1h-8.18V22.58zm10.54 0h2l6 13.93V22.58h2.44v21h-1.87l-6-14.32v14.29h-2.48l-.09-20.97zm13.67 0h8.12v2.18h-5.2v6.93H161v2.07h-4.22v7.69H162v2.1h-8.18V22.58zm10.53 0h4.22a7 7 0 014.67 1.31c1 .87 1.49 2.29 1.49 4.26 0 2.667-.863 4.297-2.59 4.89l3 10.51h-2.84l-2.75-9.84h-2.27v9.84h-2.93V22.58zm4 9a3.87 3.87 0 002.7-.76 3.574 3.574 0 00.82-2.71 5.851 5.851 0 00-.29-2 1.887 1.887 0 00-1-1.08 4.759 4.759 0 00-2.05-.35h-1.29v6.94l1.11-.04zM178.67 42a9.247 9.247 0 01-1.27-5.35v-7c-.034-1.35.134-2.7.5-4a4.483 4.483 0 011.74-2.41 5.91 5.91 0 013.36-.84 5.264 5.264 0 014.18 1.48 7.001 7.001 0 011.28 4.63v.78h-2.75v-.65a11.491 11.491 0 00-.18-2.32 2 2 0 00-.76-1.23 2.999 2.999 0 00-1.72-.41 2.52 2.52 0 00-1.81.56 2.557 2.557 0 00-.77 1.48 14.718 14.718 0 00-.17 2.49V37a7.518 7.518 0 00.59 3.46 2.827 2.827 0 003.496.736c.383-.197.716-.48.974-.826a8.104 8.104 0 00.61-3.65v-1.48h-2.66v-2.07h5.3v10.38h-1.81l-.29-2.41a3.685 3.685 0 01-3.73 2.67 4.657 4.657 0 01-4.11-1.81zm16.02-5.85l-4.53-13.57h2.72l3.21 10.12 3.16-10.12H202l-4.5 13.57v7.4h-2.8l-.01-7.4z" fill="#444"/></g><defs><clipPath id="aclip0"><path fill="#fff" d="M0 0h201.99v59.48H0z"/></clipPath></defs></svg><svg preserveAspectRatio="xMidYMid" viewBox="0 0 33.625 33.657" id="icon-kekstagram" xmlns="http://www.w3.org/2000/svg"><g fill-rule="evenodd"><path d="M16.812-.003c9.292 0 16.825 7.532 16.825 16.824 0 9.292-7.533 16.825-16.825 16.825-9.292 0-16.824-7.533-16.824-16.825C-.012 7.529 7.52-.003 16.812-.003z" fill="#343434"/><path d="M19.327 15.567l6.905-6.629h-6.718l-4.144 4.067V8.938H9.53v15.999h5.84v-5.144l.422-.405 4.106 5.549h6.633l-7.204-9.37z" fill="#ffe853"/></g></svg><svg fill="none" viewBox="0 0 147 40" id="icon-pink" xmlns="http://www.w3.org/2000/svg"><path d="M72.193 18.425c0-.333.133-.652.369-.89.237-.238.558-.376.897-.384h7.211c5.113 0 8.477 2.676 8.477 7.06v.06c0 4.798-4.078 7.286-8.899 7.286h-5.494v6.734a1.244 1.244 0 01-.332.965 1.286 1.286 0 01-.948.41 1.304 1.304 0 01-.949-.41 1.26 1.26 0 01-.332-.965V18.425zm8.156 10.861c3.746 0 6.207-1.975 6.207-4.937v-.059c0-3.18-2.42-4.828-6.026-4.828h-5.725v9.785l5.544.04zm13.67-11.019a1.243 1.243 0 01.332-.965 1.286 1.286 0 01.948-.41 1.304 1.304 0 01.948.41 1.258 1.258 0 01.333.965V38.29a1.245 1.245 0 01-.332.965 1.283 1.283 0 01-.949.41 1.305 1.305 0 01-.948-.41 1.26 1.26 0 01-.332-.965V18.267zm9.18.03a1.25 1.25 0 01.38-.868c.236-.23.553-.362.885-.367h.352c.261.005.516.075.743.203.226.127.416.31.552.528l13.751 17.23V18.237c0-.324.131-.636.364-.865a1.259 1.259 0 011.762 0c.233.23.364.54.364.865v20.094a1.117 1.117 0 01-.711 1.082 1.16 1.16 0 01-.454.083h-.13a1.739 1.739 0 01-.756-.23 1.708 1.708 0 01-.57-.54L105.67 21.09v17.24a1.238 1.238 0 01-.353.853c-.224.23-.529.366-.853.381a1.257 1.257 0 01-.871-.369 1.21 1.21 0 01-.354-.865V18.296h-.04zm25.541-.03a1.243 1.243 0 01.332-.965 1.287 1.287 0 01.949-.41 1.304 1.304 0 01.948.41 1.242 1.242 0 01.332.965v12.175l12.897-13.005a1.496 1.496 0 011.004-.444 1.3 1.3 0 01.87.38c.23.232.361.54.366.864a1.262 1.262 0 01-.422.889l-8.035 7.82 8.667 10.427c.227.258.352.587.352.928a1.287 1.287 0 01-.847 1.18 1.262 1.262 0 01-1.083-.08 1.23 1.23 0 01-.43-.409l-8.457-10.357-4.882 4.798v4.839a1.238 1.238 0 01-.373.886 1.28 1.28 0 01-.902.368 1.288 1.288 0 01-.902-.368 1.244 1.244 0 01-.374-.886V18.267h-.01z" fill="#fff"/><path d="M98.94 9.746a3.678 3.678 0 01-2.574-1.047 3.554 3.554 0 01-1.072-2.528c0 .948-.383 1.857-1.065 2.528a3.668 3.668 0 01-2.57 1.047c.965.002 1.89.381 2.57 1.053a3.554 3.554 0 011.065 2.53 3.561 3.561 0 011.071-2.53 3.688 3.688 0 012.575-1.053z" fill="#D22856"/><path d="M43.287 19.067h.733a2.47 2.47 0 00-.906-.887 2.523 2.523 0 00-1.233-.328 2.03 2.03 0 01-1.166-.368 1.978 1.978 0 01-.732-.965c-.724.206-1.427.477-2.1.81h.191c.533 0 1.044.208 1.42.578.377.37.589.873.589 1.397.005.095.005.19 0 .286a8.977 8.977 0 013.204-.523z" fill="#fff"/><path d="M60.733 27.647l-5.192-21.08C55.179 4.245 52.929 0 46.903 0c-.4 0-.783.156-1.066.434a1.469 1.469 0 00-.44 1.047c0 .393.158.77.44 1.047a1.52 1.52 0 001.066.434c4.871 0 5.594 3.683 5.665 4.088l4.78 19.452H55.25a11.721 11.721 0 00-1.724-4.78 11.946 11.946 0 00-3.599-3.633 2.502 2.502 0 00-1.116.908c-.274.404-.42.878-.42 1.363.005.086.005.171 0 .257a9.148 9.148 0 012.922 3.207 8.974 8.974 0 011.095 4.169 9.042 9.042 0 01-.14 1.48 8.849 8.849 0 01-3.05 5.393 9.132 9.132 0 01-5.885 2.141 9.132 9.132 0 01-5.885-2.141 8.849 8.849 0 01-3.049-5.392 9.031 9.031 0 01-.14-1.481c.015-1.37.341-2.72.954-3.95a2.023 2.023 0 01-1.33-.625 1.957 1.957 0 01-.538-1.35.694.694 0 00-.191-.483 11.566 11.566 0 00-1.798 4.936h-1.868a11.782 11.782 0 00-3.933-7.54 12.17 12.17 0 00-8.05-3.03 12.17 12.17 0 00-8.05 3.03 11.782 11.782 0 00-3.932 7.54h-2.08L8.233 7.05c.061-.405.814-4.088 5.666-4.088.4 0 .783-.156 1.065-.434.282-.277.441-.654.441-1.047 0-.393-.159-.77-.441-1.047A1.52 1.52 0 0013.899 0C7.872 0 5.623 4.246 5.26 6.566L.058 27.647a1.38 1.38 0 00.247 1.263 1.43 1.43 0 001.189.534h4.018c.082.611.21 1.215.382 1.807a.731.731 0 00.1-.355c0-.524.212-1.026.589-1.397.376-.37.887-.578 1.42-.578.163.002.325.025.482.069a8.835 8.835 0 01-.07-1.037c.002-.496.046-.991.13-1.48a8.848 8.848 0 013.042-5.414 9.131 9.131 0 015.897-2.152c2.165 0 4.258.763 5.898 2.152a8.848 8.848 0 013.041 5.413c.085.49.128.985.131 1.481a8.87 8.87 0 01-2.665 6.267 9.18 9.18 0 01-6.374 2.62 9.146 9.146 0 01-5.454-1.708c-.363.31-.826.48-1.306.483a.76.76 0 00-.526.22.734.734 0 00-.217.521 1.946 1.946 0 01-.181.8 12.088 12.088 0 007.643 2.705 12.174 12.174 0 008.012-2.951 11.789 11.789 0 004-7.436h1.829a11.784 11.784 0 003.944 7.51A12.171 12.171 0 0043.292 40a12.17 12.17 0 008.033-3.015 11.784 11.784 0 003.944-7.511h4.018c.232.016.465-.024.678-.117.212-.093.398-.236.541-.417a1.38 1.38 0 00.227-1.293z" fill="#fff"/><path d="M50.92 15.917a4.576 4.576 0 01-1.729-.335 4.515 4.515 0 01-1.466-.96 4.431 4.431 0 01-.98-1.44 4.37 4.37 0 01-.344-1.699 4.406 4.406 0 01-1.328 3.136 4.56 4.56 0 01-3.192 1.298 4.57 4.57 0 013.193 1.304 4.416 4.416 0 011.327 3.14c0-1.18.476-2.31 1.323-3.143a4.56 4.56 0 013.196-1.301zm-12.846 3.466a2.786 2.786 0 01-1.953-.796 2.692 2.692 0 01-.809-1.92c0 .719-.29 1.408-.805 1.917a2.786 2.786 0 01-1.947.799c.73 0 1.43.285 1.946.792.516.507.806 1.196.806 1.913a2.693 2.693 0 01.813-1.914 2.787 2.787 0 011.95-.791zM10.785 33.64a2.786 2.786 0 01-1.94-.802 2.692 2.692 0 01-.802-1.913c0 .719-.29 1.408-.805 1.917a2.786 2.786 0 01-1.947.799c.73.002 1.43.29 1.947.799.516.508.805 1.198.805 1.916 0-.717.288-1.404.802-1.913a2.786 2.786 0 011.94-.802z" fill="#D22856"/></svg></svg>