<svg version="1.1" id="Layer_1"
  xmlns="http://www.w3.org/2000/svg" x="0" y="0" viewBox="0 0 340 349" xml:space="preserve">
  <style>.st4{fill:#7d972c}.st4,.st5,.st6{fill-rule:evenodd;clip-rule:evenodd}.st5{fill:#dcf0ab}.st6{fill:#919541}.st10,.st11,.st12,.st13{fill-rule:evenodd;clip-rule:evenodd}.st7{fill:#e1e599}.st7,.st8,.st9{fill-rule:evenodd;clip-rule:evenodd}.st8{fill:#a8b158}.st9{fill:#fbd2ce}.st10{fill:#e9918d}.st11{fill:#fefefe}.st12{fill:#839154}.st13{fill:#f1ffb4}.st14{fill:#8e9138}.st14,.st15,.st16,.st17,.st18,.st19{fill-rule:evenodd;clip-rule:evenodd}.st15{fill:#b0ba1f}.st16{fill:#647122}.st17{fill:#a6b848}.st18{fill:#732703}.st19{fill:#f1824b}.st20{fill:#be303e}.st20,.st21,.st22,.st23,.st24{fill-rule:evenodd;clip-rule:evenodd}.st21{fill:#fcc2c0}.st22{fill:#5b5b5b}.st23{fill:#98a521}.st24{fill:#7f8235}</style>
  <ellipse id="background" cx="169.9" cy="174.3" rx="169.7" ry="174.5" fill-rule="evenodd" clip-rule="evenodd" fill="#aecacd"/>
  <path fill-rule="evenodd" clip-rule="evenodd" fill="none" d="M22.7 111H305v119H22.7z"/>
  <path d="M153.9 127.5l1.2 1.2c-2.1 2.7-4 4.6-5.6 5.9-1.6 1.2-2.8 1.8-3.5 1.8-.6 0-.9-.6-.9-1.7 0-2.8 1.8-7.1 5.5-12.9 3.1-5 4.6-7.8 4.6-8.4 0-.5-.2-.7-.6-.7-.7 0-2.6 1.6-5.5 4.9-2.9 3.3-6.6 7.9-10.9 13.9-4.9 6.7-8.3 11.4-10.1 14.3 3.5.3 6.3.8 8.5 1.3s5.5 1.4 9.7 2.6c4.2 1.2 7.3 1.9 9.4 2.1-2.4 2.8-4.1 4.7-5.1 5.7-.9 1-1.6 1.6-2.1 1.8-.8.3-1.9.4-3.5.1-1.5-.3-4-.9-7.3-1.7-3.3-.9-6.5-1.6-9.4-2.1-2.9-.6-5.6-.9-7.9-.9-1.4 0-2.5.2-3.5.5s-2.3.8-4.1 1.5-2.9 1.1-3.7 1.1c-1 0-1.5-.4-1.5-1.3 0-.5.2-1 .5-1.6.9-1.4 1.7-2.7 2.5-3.9.8-1.3 1.7-2.2 2.6-2.9.9-.7 2.2-1.3 3.9-1.6s4-.6 6.8-.6c4.2-6.5 8.2-12.3 11.9-17.3s7-9.3 10-12.8 5.6-6.1 7.9-7.9c2.3-1.8 4.1-2.7 5.4-2.7.9 0 1.7.3 2.2.8.5.5.8 1.3.8 2.2 0 3-2.7 9.5-8.2 19.3zm16.4 18.7v1c0 1.5.4 2.7 1.1 3.6.8.9 1.7 1.3 3 1.3s2.6-.3 4-.9c1.4-.6 2.7-1.4 4.1-2.4 1.4-1 3-2.3 5-4v2.4c-2.9 3.5-5.7 6.3-8.3 8.1s-5.2 2.8-7.9 2.8c-2.3 0-4.2-.9-5.5-2.7-1.4-1.8-2-4.3-2-7.4 0-2.7.6-5.2 1.9-7.4 1.3-2.2 3.4-4.6 6.3-7.1 2-1.7 3.9-3 5.9-3.8s3.7-1.3 5.2-1.3c1.2 0 2.2.3 2.9.8.7.6 1.1 1.4 1.1 2.5 0 1.6-.6 3.3-1.8 4.9-1.2 1.6-3.1 3.2-5.6 4.8-2.6 1.8-5.7 3.3-9.4 4.8zm.4-2.6c2.3-.9 4.3-2 6-3.4 1.7-1.4 2.9-2.6 3.7-3.9.8-1.2 1.2-2.1 1.2-2.7 0-.6-.3-.9-.8-.9s-1.2.3-2.3.9c-1.1.6-2.1 1.4-3.2 2.3-1.1 1-2.1 2.1-2.9 3.4-.9 1.4-1.4 2.8-1.7 4.3zm20.6 2.3v-.9c6.7-7.1 11.3-12 13.9-14.9.6-3.2 2-4.8 4.1-4.8.5 0 1.1.2 1.8.5l.2.7c-.1.3-.2.8-.2 1.3s.2 1.4.6 2.8c.4 1.3.7 2.5.9 3.4.2.9.3 1.9.3 3.1 0 1.7-.4 3.4-1.2 4.9-.8 1.6-1.9 3.1-3.4 4.5s-3.4 2.9-5.7 4.4c.9.2 1.7.2 2.2.2 1.1 0 2.2-.3 3.5-.8 1.2-.5 2.5-1.3 3.8-2.1s2.8-2.1 4.5-3.5v2.6c-3.3 3.3-6.3 5.7-8.9 7.4-2.6 1.7-4.9 2.5-6.8 2.5-2.4 0-4.7-1-6.8-3.1-1.2-1.3-2-2.4-2.3-3.6-.4-1.1-.5-2.7-.5-4.6zm14.5-6l-.7-5.7c-1.6 1.8-5.1 5.3-10.4 10.5 1.6.3 2.6.8 3.2 1.4.6.6 1.4 1.7 2.4 3.3 1.8-.7 3.1-1.7 4.1-3 1-1.3 1.4-3 1.4-5.2v-.7c.1-.2.1-.4 0-.6zM96.9 197.6h5.9c3.4-4.6 6-8.6 7.8-12 1.8-3.4 2.7-5.7 2.7-6.7 0-1.5-1.3-2.2-3.8-2.2-1.5.1-4.1.4-7.9 1-3.8.5-7.4 1.1-11 1.8-3.2.6-5.7 1.2-7.6 1.9-1.9.6-3.3 1.2-4 1.6-.8.4-1.3.7-1.4.9 1.9-.1 3.6-.2 4.9-.2 2.1 0 3.1.2 3.1.7 0 .2-.7.5-2.2.8-1.5.3-2.8.7-4.1 1-1.3.4-2.5.8-3.7 1.3-1.2.5-1.9.7-2.2.7-.6 0-1.1-.2-1.5-.7-.4-.5-.6-1-.6-1.7 0-.4.4-1.6 1.1-3.5.7-1.9 1.7-3.7 3-5.6 1.3-1.9 2.9-3.3 4.8-4.2.7-.3 2.9-1 6.7-1.8 3.8-.9 8.1-1.7 12.8-2.4 4.8-.7 9.1-1.1 13.1-1.1 2.4 0 4.3.3 5.8 1s2.2 2.1 2.2 4.3c0 .7-.3 1.8-.8 3.3-.5 1.5-1.3 3.4-2.5 5.6-1.1 2.3-2.5 4.8-4.1 7.5-1.6 2.7-3.5 5.6-5.6 8.7h6l-5.2 7.5c-.7.1-1.6.1-2.6.1-1.1 0-2.2.1-3.5.1-3.2 4.2-6.7 8.1-10.4 11.8-3.7 3.7-7.1 6.6-10.2 8.8-3 2.2-5.2 3.3-6.4 3.3-.5 0-.9-.2-1.3-.5s-.5-.7-.5-1.3c0-.4.6-1.6 1.7-3.4 1.2-1.8 2.8-3.5 4.8-5.1 2.1-1.6 4.4-2.5 7-2.7 1.1-1.1 2-2.1 2.8-3 .8-.9 1.9-2.1 3.3-3.8 1.4-1.7 2.5-2.9 3.2-3.8l-11.8.6c-1.3.1-2.2 0-2.6-.2-.5-.2-.7-.6-.7-1.3.5-1.3.9-2.2 1.2-2.7.4-.8.7-1.2 1-1.4.2-.2 1-.4 2.1-.6l7.2-1.8c1.9-.3 3.2-.6 4-.6zm42.4 6.7v2.9c-5.4 7.2-9.9 10.8-13.3 10.8-1.8 0-3.3-1-4.4-3-1.1-2-1.6-4.7-1.6-7.9 0-2.7.6-5.8 1.9-9.5 1.3-3.7 2.9-7.4 5-11.1 2.1-3.8 4.3-7 6.5-9.8 2.3-2.8 4.3-4.8 6.3-5.9.8-.5 1.4-.7 1.8-.7.5 0 .9.2 1.1.7.2.5.3 1.3.3 2.5 0 3.6-1.5 8.1-4.4 13.3-2.9 5.3-7 10.7-12.3 16.2-.3 1.4-.4 2.4-.4 3.1 0 1.7.4 3 1.1 4.1.7 1 1.7 1.6 3 1.6.7 0 1.4-.3 2.1-.8.8-.5 1.5-1.1 2.4-1.9.8-.8 2.4-2.3 4.9-4.6zm-11.7-7c1.4-1.3 2.7-2.8 3.9-4.5 1.3-1.7 2.5-3.5 3.6-5.4 1.1-1.9 2-3.7 2.6-5.2.6-1.5 1-2.7 1-3.5 0-.6-.2-.9-.6-.9-.2 0-.5.1-.9.4-1.6 1.3-3.4 3.8-5.4 7.6-2 3.8-3.4 7.7-4.2 11.5zm21.6 8.9v1c0 1.5.4 2.7 1.1 3.6.8.9 1.7 1.3 3 1.3s2.6-.3 4-.9c1.4-.6 2.7-1.4 4.1-2.4 1.4-1 3-2.3 5-4v2.4c-2.9 3.5-5.7 6.3-8.3 8.1s-5.2 2.8-7.9 2.8c-2.3 0-4.2-.9-5.5-2.7-1.4-1.8-2-4.3-2-7.4 0-2.7.6-5.2 1.9-7.4 1.3-2.2 3.4-4.6 6.3-7.1 2-1.7 3.9-3 5.9-3.8s3.7-1.3 5.2-1.3c1.2 0 2.2.3 2.9.8.7.6 1.1 1.4 1.1 2.5 0 1.6-.6 3.3-1.8 4.9-1.2 1.6-3.1 3.2-5.6 4.8-2.7 1.8-5.8 3.3-9.4 4.8zm.3-2.6c2.3-.9 4.3-2 6-3.4 1.7-1.4 2.9-2.6 3.7-3.9.8-1.2 1.2-2.1 1.2-2.7 0-.6-.3-.9-.8-.9s-1.2.3-2.3.9c-1.1.6-2.1 1.4-3.2 2.3-1.1 1-2.1 2.1-2.9 3.4-.8 1.4-1.4 2.8-1.7 4.3zm39.2-1.5c-3.8 5-6.6 8.6-8.6 10.7-2 2.1-3.6 3.2-4.8 3.2-1 0-1.9-.4-2.7-1.2-.8-.8-1.5-1.9-1.9-3.3-.5-1.4-.7-2.9-.7-4.5 0-1 .1-2 .3-2.8.2-.8.6-1.8 1.1-2.8.5-1 1.3-2.1 2.2-3.3s2-2.5 3.3-4c.8-.9 1.4-1.7 2-2.3.5-.6 1.1-1 1.6-1.3.5-.2 1.3-.3 2.5-.3.8 0 1.6.1 2.4.3.8.2 1.1.4 1.1.7 0 .5-.4 1.3-1.2 2.5-.8 1.2-2 2.7-3.7 4.5-1.7 1.8-3.7 3.5-5.9 5.2-.5 1.5-.7 2.7-.7 3.5 0 1.1.4 1.7 1.3 1.7.3 0 .8-.3 1.6-.8.7-.5 2-1.6 3.7-3.1 1.7-1.5 3.3-2.9 4.7-4 1-.9 2.2-2.2 3.5-4 1.3-1.8 2.4-3.1 3.3-4 1.9-2 3.2-3.4 3.9-4 .7-.6 1.4-.9 2-.9.6 0 1 .2 1.3.6.2.4.3 1.2.3 2.4 0 .5-.1 1-.2 1.3-.1.3-.3.8-.6 1.3s-1 1.5-2 2.9-2.2 3.1-3.5 5.1c-.7 1-1.4 2.2-1.9 3.4-.5 1.2-.8 2.2-.8 2.8 0 1.4.5 2 1.6 2 .9 0 1.9-.4 3.1-1.1 1.2-.7 3-2 5.4-3.9v2.6c-3 2.8-5.3 4.9-6.8 6.1-1.5 1.3-2.7 2.2-3.8 2.9-1.1.7-2.1 1-3 1-2.2 0-3.3-1.3-3.3-3.9 0-1 .3-2.3 1-4 .3-1.6 1.4-4 2.9-7.2zm16 5.7v-2.5c1.4-1.7 2.5-3.1 3.2-4.3-.8-.3-1.4-.6-1.8-1.1-.4-.4-.6-1-.6-1.9 0-.9.4-2.1 1.2-3.6.8-1.4 1.7-2.8 2.9-4 1.1-1.3 2.2-2.1 3.1-2.4.4-.2.7-.3 1.1-.3.5 0 .8.2.8.7 0 .4-.4 1.3-1.2 2.7 5.4-.8 8.8-1.3 10.2-1.3.5 0 .9.1 1.1.2.4.2.8.8 1.1 1.6.3.9.4 1.7.4 2.6 0 .5-.2 1.1-.7 1.8-.5.6-1.3 1.6-2.5 2.8-1.4 1.5-2.5 3.1-3.5 4.8-.9 1.7-1.4 3.1-1.4 3.9 0 1.2.8 1.8 2.3 1.8 1.6 0 4.3-1.6 8.3-4.8v2.6c-2.2 2.3-3.9 4-5.4 5.4-1.4 1.3-2.7 2.3-3.9 3.1-1.2.8-2.3 1.2-3.2 1.2-1.1 0-2-.5-2.7-1.5-.7-1-1.1-2.5-1.1-4.4 0-1.1.3-2.4.9-3.8.6-1.4 1.4-3 2.5-4.7 1.1-1.7 2.3-3.4 3.7-5-.7.2-1.5.3-2.5.5-.9.2-1.9.3-2.9.5s-1.8.3-2.3.4c-1.7 3.4-4.1 6.4-7.1 9zm27.5-1.9v-.9c6.7-7.1 11.3-12 13.9-14.9.6-3.2 2-4.8 4.1-4.8.5 0 1.1.2 1.8.5l.2.7c-.1.3-.2.8-.2 1.3s.2 1.4.6 2.8c.4 1.3.7 2.5.9 3.4.2.9.3 1.9.3 3.1 0 1.7-.4 3.4-1.2 4.9-.8 1.6-1.9 3.1-3.4 4.5s-3.4 2.9-5.7 4.4c.9.2 1.7.2 2.2.2 1.1 0 2.2-.3 3.5-.8 1.2-.5 2.5-1.3 3.8-2.1s2.8-2.1 4.5-3.5v2.6c-3.3 3.3-6.3 5.7-8.9 7.4-2.6 1.7-4.9 2.5-6.8 2.5-2.4 0-4.7-1-6.8-3.1-1.2-1.3-2-2.4-2.3-3.6-.3-1.1-.5-2.7-.5-4.6zm14.6-6l-.7-5.7c-1.6 1.8-5.1 5.3-10.4 10.5 1.6.3 2.6.8 3.2 1.4.6.6 1.4 1.7 2.4 3.3 1.8-.7 3.1-1.7 4.1-3 1-1.3 1.4-3 1.4-5.2v-.7c.1-.2 0-.4 0-.6z" fill="#fff"/>
  <path id="ornament" class="animatedBorder" d="M184.1 320c-1.3.4-1.3.1-1.4 0l-5 .1c-3.9.4-6.2.7-9.9-.3l-6.3-1.4c-.9-.1-2.4 0-3.2-.3 1.6-.4 3.1-.1 4.9-.6 1.2-.4 1.9.3 4.5.4 1.4.1 3.1.1 4.7 0 1.8-.1 3.2.1 4.6.2 1.4.1.9-.5 2.2-.6 4.8-.6 1.8.2 4.6-.1 2.2-.3 10.4.1 11.6-1-1 .6-5.9 1.6-7.1 1.6-1.2 0-6.7-.2-6.9.8-.2.8 1 .7 2.7 1.2zm-12.4-12.9c-.4-.2-.2-.2-.8-.1l-2.3.3c.7.8 1.7 1.4 2.6.8.4-.4.4-.6.5-1zm80.2-220.9c-.4-.4-.7-.5-1.2-.8l-1.4-.6c.6.7 3.6 3.8 4.5 4.1-.5-1.2-.8-1.9-1.9-2.7zm-27-26.9c1.1.2 2.9 1.6 4.3 1.8-.5-.6-2.3-1.7-3.1-2.3-1-.7-2.5-1.5-3.4-1 .7.7 1.3.9 2.2 1.5zM51.7 199.1c-.4-2.1-3.3-1.3-2.9.4.5 2.3 3.3 1.3 2.9-.4zM263.4 87.3c-.3-.1.1.2-.7-.3-1.2-.9-1.9-1.7-4.3-3.4-1.4-.9-4-3.1-4.8-4.6 1.8.2 3.3 2.8 4.8 3.9 1.8 1.3 2.9 1.2 5 4.4zm-48.5-18.4c-1.5-.5-1.8-.3-3.4-1.4-1.8-1.3-2-.7-3.5-1.1-1.5-.4-2.3-1.8-5-2.8-3.2-1.1-1.8 0-1.8.1 1.6-.8 3.8 2.9 7.6 3.7 1.4.3 2.5 1.4 3.9 1.6 3.5.7 2.6 1 3.9 1.3l-1.7-1.4zm-100 227c.8-.1.6 0 1.2.1-.9-.5-4.9-2.8-5.2-3.4 0 0 .1-.2-.6-.7-.6-.4-2.9-1.9-3.5-1.9-.6 0-.4-.4-.4.3 1.1.4-.6.3 1.5 2.1 1.4 1.2 3.1 1.9 4.8 2.5 1.1.6 1.5.4 2.2 1zm27.8-4.1c-1.7-.8-2.6-.4-5.8-2.1-3.4-1.9-1.8-1.8-5.8-1.7-3.7.1-5.5-3.1-10-4-.6-.1-1 0-1.5-.1 1.8.6 3.5.9 5.6 2.2 6.7 4.2 5.7 1.3 8.7 2.6 1.9.9 4.6 3.9 8.8 3.1zM296.4 137c-.2-1.2-.1-1.6-.5-2.8-.7-1.7-1.1-2.2-1.3-3.9-.4-2.5-2.4-7.5-4.6-9.5.2 1.1 1.4 3.3 2 4.5l2.9 8.6c.2 2.1.3 2.4 1.6 4.5l-.1-1.4zm-75.3-60.9c1.5-.3 2.6.7 3.9 1.6l4.9 2.4c1.5.6 1-.7 3 1 1.3 1.1 2.6 2.6 3.8 3.8 1.3 1.3 2.3 1.6 3.8 3 1.3 1.2 2.3 2.6 3.6 4 2.5 2.8 5.2 4.6 7.4 7.3-5.2-2.9-7.6-6.6-11-10.3-.6-.6-1.3-1.3-1.9-1.8-.7-.5-1.2-.6-2-1.4-.9-.8-4.5-4.4-5.6-4.5-.7-.1-.3.4-2.1-.6-2-1.2-6.1-3.1-7.8-4.5zM106.8 288.4l-6.2-4.6 4.7 2.3-3-2.3c1.4.4 4.1 2.1 5.8 2.8l-2.8-2.3c1.3.6 4 2.2 4.7 2.1l-2.1-1.7 5.7 2.9c1.2.7 4.8 2.7 5.6 3.4l-4.1-1.5 1.9 1.7c-.7-.3-1.5-.6-2.3-1-.6-.3-1.4-.8-2.2-.9.2.8 3.4 2.4 4.3 3.2-2.1-1.1-5.5-2.3-7.6-3.8.2.9.8 1 2.2 1.9.8.6 1.7 1.1 2.4 1.7-1.8-.8-3.5-2.2-6.2-3.5l-.8-.4zM49.4 176.3c.3-.6.2-.7.5-1.4.7-1.6 1.8-2.2 2.1-5.5.1-.7 0-.8.2-1.5.2-.9.3-1.7.5-2.8.3-2.2-.8-2.4.5-5.7 1.6-4.1.4-4.2.8-5.8.5-1.9 3.1-3 3.2-5.3.1-1.3-.5-1.6.1-2.9.3-.9 1.1-1.8 1.5-2.7 1-2.2-.3-3.6.8-5.7.8-1.6 3-3.8 2.7-5.4-1 1.6-2.9 3.6-3.5 5.1-.8 2.1.4 3.6-1 5.7-2.5 3.7-1.3 2.9-1.3 5.6 0 1.7-3.1 3.4-3.3 5.4-.1.9.3 2.1.2 2.9-.3 1.6-1.4 2.3-1.8 5.5-.1 1.1.1 1.6-.2 2.9-.2 1.2-.3 1.8-.4 2.8-.1 1.1 0 1.8-.2 2.9-.5 3-1.8 3.5-1.4 5.9zM95 271.7l3 2.9c-4.4-1.4-9.7-7.3-12.5-9.2 2.2 3 6.3 6.4 9 9.2-1.6-.6-7.1-4.7-8.2-6.4.7 1.2 1.7 2.2 2.5 3.1.7.8 2.3 2.2 2.7 2.8-3.8-1.9-4.1-2.4-7.2-6.2l-6.7-8.5c.8 1.8 3.4 5.1 4.8 6.7.9 1.1.7 1.4 1.4 2.3 1 1.1 2.4 2.2 3.6 3.4 1.1 1.1 2.3 2.6 3.3 3.7-3.3-1.8-13.6-12.5-13.7-13 1 2.1 3.4 3.8 4.8 5.6-3-1-4.8-5.6-7.6-6.8 2.2 3 6.3 6.2 8.1 9.5-3.5-2.7-10-10.6-10.7-11.1-.5.7-.8.1 1 2 2.3 2.4 3.5 4.4 5.3 7.2 2.5 3.8 5 5.2 7.7 7.9l-1-.6c-2.4-1.7-5.3-3.9-7-6.1-1.5-1.9-6.3-7.8-7.8-8.9l6 8.1c-.8-.1-2.5-1.9-2.9-2.4-1-1-2-2.4-2.8-3.6-.9-1.2-1.6-2.3-2.6-3.4-1.2-1.5-1.5-1.2-2.9-2 1.1 1.6 2.4 1.5 4.5 5.9l-1.5-1.3c.1.5.1.6.5 1.1-2.6-2.3-4.9-4.6-7.4-7.1-1.1-1.1-2.5-2.7-3.6-3.7-1.3-1.1-1.2-.1-3.8-2.9-1.2-1.3-2.4-2.3-3.6-3.8l-3.2-4.2c-.6-1.4-.8-3.1-1.1-4.5-.5-2-1.7-2.5-2-4.8-.1-.8.3-.1-.3-1.1-.7-1.1-1.9-1.7-1.9-3.3-.1-3.3-2.2-5.9-2.4-6.5-.1-.4.1-1.5.2-2.1.1-.9-.1-.7-.3-1.1-.3-.7-.3 0-.2-1.1.4-3.2-.1-2.4.1-4.4.1-.8.1-1.2-.2-2.2-1.7-5.7 1-8.8 6.6-10.6 2.7-.5 5.4 1.6 7.4 4.2.9 1.1.9.2 1.8 1.1.8.7.8 1.4 1.2 2.3.9 1.9 1.9 1.4 2.7 4.3.4 1.5 1.3 3 1.5 4.4.5 2.4.5 2.2 1.9 4.5 2.6 4.3 5.4 12.8 7.4 17.8.8 1.9 1.1 2.7 2.7 4.1 1.4 1.2 1.7 2.5 2.6 4.2 1.4 2.5 4.3 7.2 6.2 9.4 2.1 2.5 4.9 4.8 6.8 7.1-.7-.7-4.3-3.8-5.1-4.2 1.8 2.8 3.9 4.7 6.3 6.9 1.2 1.4 5.1 5.1 6.6 5.4zM152.9 63c2.2-.9 10.6-1.3 13.5-.8 1.1.2 1-.2 2 .4-1.2.1-2.5 0-3.8.1-1.3 0-2.6.1-3.9.2l-6.7.4h-.5c-.6-.2-.2-.1-.6-.3zm12.5-15.2c-.7.3-1.7.4-2.5.8-2.2.8-4.7 1.4-7.1 1.2l-.3-.1c-.1-.1-.1 0-.2 0 .9-.3 4.2-1.2 5.2-1.3 1.4-.3 3.6-.5 4.9-.6zm.9 4.1c-1.4.6-4.1.8-5.6 1.1-5.5.8-7.5 2.8-11 3-1.1.1-4.2.1-5.2.5 2.3-1.4 12.7-3.1 16.3-4 1.7-.4 3.9-1.1 5.5-.6zM142 58.2c-.7 0-1.4.1-2.2.4-2 .8-1 .2-2.1.4L127 63.2c-.7.3-1.6.8-2.2.9 3.1-2.1 5.6-2.8 8.7-4.2 6-2.7 6.6-1.9 8.5-2.7l-.8.7.5.2c.6.2.3-.1.3.1zm14.8-13.5c-1.8 1.1-5.2 1.5-6.3.9 3.2-2.4 2-.4 6.3-.9zm-6.5-.5l-1.7.6c.8 0 .8.5 1.7.1.9-.4 1-.9 2.2-1.2 1.6-.4 2.6.3 4 .3.6-.7.9-1.6 2-1.7.7-.1 1.9.3 2.5.1 1.3-.3 1.3-1.6 4.7.4 1.1-.6 1.1-1.3 2.5-1.1.7.1 1.9.6 2.5.7 1 0 1.8-.8 4-.3.7.2.6.3 1.3 0-1.5-.8-6.1-1.8-7.6-1.8-1.2 0-2.8.4-4.1.6-1.5.2-2.9.2-4.2.4-1.3.2-2.7.7-4.1.9l-8.2 1.1c-1.4.1-2.7 0-4.3.9.7.2 5.9 0 6.8 0zm-77.4 47c2.2-1.5 2.4-.9 4.4-3.3 1-1.2 3-2.9 4.4-3.2-6.1 4-4.1 4.6-7.7 6.9l-8 6c.1.3.2-.2.2.3-1.2 1.3-2.9 2.9-4 4.2-1.2 1.5-2 3-3.8 4.2l2.9-3.7-4.8 3.3c.6-.9.6-.6 1.2-1.7.5-.9.8-.8 1.9-2 .7-.8 1.1-.7 1.8-1.5 3.8-4 6.9-6.3 11.5-9.5zM140 46.5c-1.8 1.4-6.2 1.6-8.5 2-1.5.3-2.9.7-4.3 1.2-2.7.9-1.3.9-4 1.1 1.4-1.1 6.6-2.1 8.6-2.9 4.7-1.8 6.7-1.1 8.2-1.4zM59.2 94.1c2.6-2.1 2.2-4.1 7.8-8.5 0 .1-.1.1-.1.2l-.3.6c-.2.2-.5.5-.7.8-1.5 1.6-3.4 3.2-4.1 4.8-.7 1.7-3.7 4.6-5 6.4.9-.4 3.5-3 4.3-3.9 1.4-1.5 1.9-2.7 3.1-4.4 2.6-3.8 4-5.3 6.8-8.6 1.6-1.9 2.9-2.5 4.9-3.5 2.6-1.4 2.4-2.7 4.4-4 2.1-1.4 3.3-1.2 5.1-3.4 1.9-2.3 3-1.9 5.1-3.4-.3 0 .1-.1-.5.1-1.5.4-3.1 1.2-4 2.3-1.9 2.2-1.6 1.8-4.3 3-2.6 1.2-2.3 1.7-3.9 3.4-1.1 1.1-3.4 1.7-5 2.8-1 .7-1.2 1.1-2 1.8-1 .8-1.1.3-1.9 1.7-1.2 2.2-2.4 2.1-4.1 3.9-2.1 2.1-1.6 1.9-2.8 4.1-.6 1.1-2 3-2.8 3.8zm27.4-28.6l-5.9 2.1c-1.6.7-4.3 1.9-5.9 2.2.5-.5 6-3.2 7-3.8 7.3-4 5.9-1.3 13.9-6.9 5.4-3.8 8.8-4.3 10.5-5.4 1.6-1 1.8-1.2 3.5-1.8 2.6-.9 4.4-2.5 6.9-3.4 3.9-1.4 6.1-2.5 10.1-2.5l2.8.2c-.7.4-2.9.5-4 .7-1.3.2-2.9.6-4.2 1.1-2.6 1.1-6.2 2.5-8.6 4 3.5-1.4 7.9-3.1 11.6-4 2-.4 3.8-.8 5.8-1.5 1.9-.6 3.7-1.4 5.7-1.8 1.6-.3 4.6-.1 5.6-.6 1.1-.5 1.8-1.4 3.1-1.8 1.2-.4 7-.9 8.5-1.1 1.9-.2 3.6-.1 5.5-.6l11.2-1.2c1.8 0 3.5.5 5.3 1.2 4.9 1.9 2.4.2 5.4-.3 2-.3 3.3.7 5.3 1.3.7.2 1.8.3 2.7.5l5.2 1.2c2.9.6 5.1.3 7.6 3l-5.7-1.9c-3.6-1.2-7.6-1.1-11.2-2.5-1.8-.7-3.8-1.9-5.7-.3.3.1 2.2.6 2.3.6-.8.3-2.8 0-3.7 0-.9 0-1.2.2-2 .2-.6 0-1.3-.1-1.8-.1-1.2-.1-2.9.4-3.9.2s-2.7-1.1-3.5.3l.9.3c.5 0 .7 0 1.1.1.8.1 1.4.1 2.3 0 3.2-.3 5.8-.2 8.8.6 1.1.3 2.2.2 3.3.3.2 0 .5 0 .6.1.3 0 .2 0 .5.1-1.7.4-5 .3-6.5.2l-9.5-.2h-3.2c-6.3 0-8.9 2.8-13.2 2.8-7 .1-5.6-1.5-12.9 1.1-2.1.8-4.7.9-6.6 1.8l2.7-.2c-2.5 1.5-14.2 5.4-17.4 6.4-2.1.7-3.8 1.3-5.8 2.7 1.1-.4 2.8-1.5 4.1-2 1.3-.5 2.7-.7 4-1.1 6.6-1.9 10.6-3.7 16.3-5.4 4.9-1.5 3.7-.7 5.9-1.2 3.9-.8 3.5-1.9 9.7-1.3 2.5.2 5.1-.1 7.6-.7 1.7-.5 13.7-1.1 15.3-.9-1.1.4-2.8.4-4.1.6-1.1.2-2.9.5-4 .8 1 .1 3.1 0 4.1 0 1.3 0 2.6.4 4.1.3 4.1-.3 4.1-.7 8.2.3 1.3.3 2.7.8 4 1 3.9.7 8.1 1.1 11.9 2-2.4.3-8.5-.7-10.6-1.2-4-.9-6.6-1.7-10.5-1.9-1.6-.1-3.8.5-5.6.5h-5.4c-2 0-3.5.2-5.7 1.2-1.1.5-1.9.8-2.9 1.1-1 .3-1.9.3-2.8.7 1.1 0 2.6-.5 3.8-.6l3.6-.3c3.1-.3 4.4-.7 7.1-.1 1 .2 2.3.5 3.5.2 3.5-.9 6.9 0 10.4 1.6-.9.2-.3.1-1.2-.1l-2.6-.6c-1.2-.3-2.3-.5-3.7-.7-1.6-.3-2.1.1-3.9.5-1.3.3-2.5.1-3.7.3-2.5.4-5.5 1.4-8 2-3.5.7-4.7 1.6-8 2.9-2.2.9-5.1.6-7.9 1.4-2.7.8-5.2 2.1-8 3-2.7.8-5 2.2-8.2 3.1-2.5.8-1.8.7-3.6 2.1-1.1.8-2.6.8-3.7 1.2 1-.4 2.3-.4 3.4-.8 1.3-.5 1.9-1.5 3.6-2.1 4.5-1.5 9.1-2.5 13.6-4.3l13.5-3.4c2.4-.4 4.2 0 6.5-.3 1.1-.1 2.2-.6 3.4-.8 1.8-.4 8-.9 9.8-.2-1.3.4-2.9.2-4.3.4-4 .4-4.7.7-8.6 1.9-1.5.5-2.7.5-4 .8.7 0 1.4.3 2.3.2 2.3-.2 2.8-1.9 7.2-.9 1.8.4 3 .1 4.7.1 1.5.1 3.1.6 4.7.5 2.1-.1 2.6.2 4.5 1.1 1.9 1 3.1.4 6.7 2.6 1.9 1.1 2.9 1.2 6.3 3.4-1.2.2-3.8-1.2-5.2-2-2.1-1.1-2.6-1.8-5.1-2.6-9.4-3-4.1-1.2-10.5-2-1.6-.2-9.6-.3-11.1.3-1.3.5-1.5.9-2.9 1.1-2.9.3-5.5-1.1-8.3 1 2.8.8 4.7-.8 9-.6.8 0 1.4.1 2.3 0 3.8-.4 7.2.5 10.8 1.2 2.2.4 4.4-.1 6.6.8.6.2 1.3.6 2 .9.9.4 3.3 1.6 4 2.3-5.3-1.8-3.9-2.3-9.4-2.9-1.8-.2-4.2.4-6 .4-3.7 0-13.2-.1-16.1.7-1.5.4-2.7 1-4.2 1.3-4 1-8.5 1-12.4 2.5-3 1.2-5.5 1.8-8.4 2.6-1.4.4-2.8.6-4.2 1.1-1.5.5-2.6 1.9-4.4 2.6-1.4.5-2.9.6-4.2 1.2-1.2.5-6.9 6.4-12.3 9.3-3.4 1.8-5.5 4-8.6 5.8-1.9 1.1-2.4 2.1-4 3.3-6.7 5.1-5.8 7.4-9.7 10.3-3.4 2.5-4.4 3.7-7.1 6.7-2.5 2.8-9.3 10.1-10.2 14.2l2.6-2.3c-.8.6-1.7 1.9-2.6 2.8l-1.6 1.2c.1-.1 4-7.8 4.4-8.7-1.3 1.3-3.1 3.9-4.4 5.5-1.5 1.9-1.9 3.8-2.8 5.8-2.5 5.4-.2 2.8-3.6 8.7-.7 1.3-.6 1.5-.5 3 .2 3.2-1 3.1-2 5.9-.4 1.1-.5 1.9-.9 3.1-.4 1.2-.6 1.8-.9 2.9-.4 1.7-3.4 9.9-4.6 11.6.3-1.2.9-2.7 1.5-4 1.6-4.1 2.7-7.9 3.6-12.1.4-1.7-.1-2.2.9-4.1.9-1.8 1.2-1.9.9-4-.6-3.7 2.2-4.9 2.3-8.1-1.1 1.8-1.2 3-2.8 5.3-1.6 2.2-1.5 3.2-2.3 5.1-.7 1.7-1.8 3.4-2.4 5.1-.5 1.6-.7 4.3-1.3 5.4-.1-.8.1-1.4.2-2.2.6-5.4 2.2-5.8 3.3-10 .4-1.5.2-2.3 1.2-3.9.4-.7.9-1.3 1.2-1.9 1.1-1.8 1.7-3.9 2.5-5.8.8-1.8 3.3-6.6 3.2-7.9-1.9 2.4-3.2 7.1-5.6 8.8l1.3-2.1-.7.4c-.1.1-.4.5-.5.7-.8 1.4-.8 2.5-1.3 3.9-1 2.8-3.5 3-4.1 5-.6 1.9-.8 3.4-1.6 5.4-.5 1.2-1.6 4.2-2.4 5.2.3-2.7 2.4-6.7 2.8-9.7.8-5.3.8-3 3.3-6 1.2-1.5.4-5.3 4-9.1-2.1 2.7-5.1 5.9-7.2 8.9-.4-.2.2.5 0-.2-.1-.7.4-.1-.2-.3-1.2 1.7-2.8 3.3-3.9 4.9-1 1.5-1.4 4.1-2.7 4.9.9-1.9 1-2.6 1.6-4.4.6-1.8 1.2-2.6 2.6-4.3 2.1-2.5 3.1-5.6 5.1-8.5 2.3-3.4 1-4.9 4.1-8.6 2.6-3.1 1.5-6 6.3-8.3l-.4.9c2.8-1.7 3-2.9 4.3-4.6 1.4-1.8 3.2-3.2 4.5-4.8-3.2 2-5.1 5.2-7.6 7.3-3.7 3.3-5.5 2.3-7.8 7.4-.7 1.6-1.5 2.5-2.4 4-.9 1.3-1.5 2.6-2.2 3.9-.6 1.1-5 7.1-5.5 7.6.6-.5 1.4-2.5 1.9-3.3.7-1.2 1.5-2.2 2.2-3.4 1.2-2 2.3-4.9 3-7.2-1.8 1.5-2.2 3.7-3.4 5.4 0-.6.2-2.7.6-3.3-1.3.8-1.2 2.5-1.3 3.4-.1 1-.5 2.7-1 3.5-.1-.9.1-1.9.1-2.9-.1-5.4 2.5-4.1 4.1-7.7.5-1.1.2-1.6 1.1-2.7.7-.9 1.6-1.5 2.3-2.3 1.3-1.5 2.5-3.4 3.9-5 .8-1 1.7-1.3 2.5-2.5 1.9-2.5 1.8-3.7 5.8-7.4 2.2-2 10.5-8.4 11.2-9.4-4.7 3-9 6.1-12.9 10-1.3 1.3-1.9 2.6-3 3.6-2.8 2.6-4.7 4.1-6.9 7.1-2 2.6-3.6 5.1-6.5 7.1-.1-.6-.2-.1.2-.9 1.4-2.5 6.1-8.3 7.5-10.9-3.5 2.4-3.9 2.6-6.4 5.8l-4.7 6.1c.5-2.3 7.3-10.8 9.4-13.1 1.9-2.1 4.2-4.2 5.9-6.3 1-1.3 1.5-2.1 1.8-3.4l1.1-3.3c-2.1 1.3-3.8 2.7-5.4 4.4-1.3 1.4-2.8 3.5-4.3 4.7.8-1.4 3.4-4.6 4.6-6.1 1.8-2.1 4.3-4 6.7-5.7 2.7-1.8 4.6-3.2 7-5.4 2.2-1.9 5.4-2.9 6.8-5.3-1.1.6-2.1.9-3.1 1.6-1.9 1.3-8.6 6.3-10 6.2 2-1.5 2.8-3 5.2-4.5 1.9-1.2 4-2.5 5.9-3.9 3.8-3 7.8-4.7 11.5-7.5zM166 308.9c-1.8.4-4.6.1-6.2-.8 1.7 0 4.9.3 6.2.8zm-2.3 1.6c-.4.1-2.1-.2-2.6-.3-1.1-.2-1.7-.4-2.8-.7-2.4-.6-3.2.2-5.6.3.9.4 2.8.7 3.8.9l1.5.2c2.5.3 3.7.7 5.7-.4zm13.6-19.1c-.6-1 0-.2-.3-2 1.7.5 2.1 0 3.6.2.8.1.5-.1.9.3-.2.6.1.4-.9.7l-3.3.8zm-12.5 6.1c-1.5.4-6.4.3-8 .1-.9-.1-1.8-.5-2.5-.4-.9.1-.5.7-2.5.3-.9-.2-1.6-.3-2.5-.4l-4.6-1.6c2 .2 6.4.9 7.3.6 2-.6 1-.1 2.7.2 2.9.5 4.7.8 7.6 1 .9.1 1.9.1 2.5.2zM289.2 150c-.6-1.5-1.7-7.9-1.5-9.1 1 1.5 1.2 3.1 1.2 4.6 0 2.2.6 3.2.3 4.5zm.6-7.2c-.6-1.4-.7-2.7-1.4-4.4-.7-1.8-.6-2.6-.8-4.2.5 1.1 1.2 3.1 1.7 4.3.6 1.7 1.1 3.1.5 4.3zm-16.9 3.9c.6.8 1.2 4.7 1.4 5.9.5 1.6.8 3.9 1.1 5.5.1.9.3 1.8.5 2.7l.3 2c0 .7 0 .3-.1.7 1.3 2.2.8 8.1.3 10.7-.2 1.2-.3 2.3-.5 3.4-.4 2.3.2 4.6-.6 6.9-.8 2.4-1.5 4.3-1.9 6.7-.3 1.8-.3 1.5.1 3.5.6 3.2-2.4 3.7-3.1 6.5-.3 1.2-.2 2.2.1 3.5.2 1.1-.8 2-.9 3.4-.3 4-2.8 4.1-2 10.2-2.6 1.7-2.9 2.2-3.6 4.6-.2.8-.7 1.9-.9 2.6-.2.8-.1 1.8-.4 2.5-.2.7-1 1.7-1.3 2.5-1.6 3.5.3 1.6-3.6 7.3-.5.8-.8 1.6-1.3 2.5l-4 7.4-6.9 9.5c-2.4 4.3-10 10.5-14.7 13.4-2.2 1.4-3.8 3.1-5.9 4.3-2.4 1.4-8 2.8-11.4 4-2.1.7-10.1 3.4-11.3 4 .5.7 1.2.4 2.2.2.8-.2 1.4-.4 2.3-.6 2.9-.8 2.5-1.1 4.3-.4-1.6.7-3.3 1-5 1.6-3.8 1.3-7 3.4-10.1 3.3-1.6 0-3.4.9-4.9.8 2.5-1.2 4.4-1.2 8.9-3.8-4.5 1.9-11.9 3-16.9 3.6-1.4.2-2.8.1-4.2.1-1.3 0-2.7.1-4 .2-1.7.1-6.8.5-8.2 1.2 1.4.3 6.5-.6 7.1-.1 1.8 1.3 1.1.9 1.5 2.1-1.2.5-.5.8-1.3 1.2-.8.3-11.2.1-12.5.5 1.2.4 6.1.6 7.6.6-1.9.6-15.7-.1-19.6.2-3.9.3-3.8-.4-7.6-1.1-5.3-.9-2.4-.1-7.4-2.2-3.1-1.3-4.1-1.2-7.3-2.9l-5.4-2.4c-3.7-1.3-10.7-5.3-12.8-4.8 1.3.6 3.4 1.2 4.4 2.5-.5-.2-.9-.4-1.5-.6l-1.5-.5c-.1-.1-.1 0-.2 0 1.8 1.2 4.4 2.5 6.5 3.4 1.6.7 1.2.7 1.2.8.4 1 3.5 2.4 4.2 3.1-1.2-.3-2-.6-3.3-1.1l-2.6-1.1c-.3-.1-.2-.1-.5-.1l-.3-.1c3.4 3 13.9 6.3 18.8 6.8 1.7.2 3.5.8 5.1 1.3 1.2.3 2.3.4 3.5.9-2.3.4-8.4-2-11.2-1.5 2 .4 3.9.7 5.9 1.2-2.4.1-4.9-.5-7.3-.6-2.5-.2-4.7-.8-7.2-1.2 3.5 1.9 7.7 2.4 11.4 3.4 3.1.9 9.2 1.4 11.5 2.2-1.1.2-2.3-.3-3.5-.5-1.5-.2-5.6-1-6.6-.9-1 .1-2-.5-3-.4 2.4 1.4 5.7 1.8 8.2 2.3 2.7.5 5.3.9 8.3.9 7.9-.2 8.4 1.2 14.7 1.8l2 .3c-2.6.6-5.6-.3-7.9-.7-7.3-1.4-4.3-.4-10.7-.8-4-.3-5.5-.7-9.1-1.2-2.1-.3-3.9-1.2-6-1.8l-14.7-4.6c2.2 1.7 7.1 2.9 9.8 3.8 3.2 1.1 6.4 2.1 9.8 2.9 1.1.3 2.2.5 3.4.8 1.1.3 2.2.4 3.3.6.9.2 3 .2 3.7.8.6.5 1.5.5 2.4.5 1.4.1 2 .3 3.5.3 3.4-.1 6.9.1 10.2.4l6.6.4h.2c-1.5.3-3.7.2-5.1.1l-4.8-.4c-.4 0-.8-.1-1.2-.1l-1.3.1c-2.2.3-5.1-.6-7.4.1 2.3 1 8.3 1.2 11 1.8.5.1.5.3 1.5.5 2.6.3 6.8.1 9.5-.9 1.8-.7 6.4-1 7.6-.5-2.3 1-5.7 0-8.3 1.6 1.4-.2 2.6.3 4-.3 1.2-.5 1-.5 2.1-.5 1.9.1 16.3-2.8 18.2-3.4l8.2-3.2c-1.2.8-9 3.8-10.7 4.2-1.7.4-3.5.7-5.2 1.1-1.8.4-3.4 1.1-5.1 1.4-3.5.7-7 1.8-10.5 2.4-1.8.3-3.6.1-5-.3-3.2-.9-6.5-.8-9.7-1.2-4.1-.5-6-1.7-9.7-2.5-1.6-.4-3.1-.6-4.7-1s-3.3-.5-4.9-.9c-1.6-.4-3-.8-4.7-1.2-3-.7-6.3-2.2-9.3-3.2 4 2.9 9.8 4.3 11.9 5.4-1.7.1-6.3-1.7-8.5-2.5s-6.4-2.3-8.4-2.2c1 .6 3.3 1.1 4.5 1.6 1.4.5 2.8 1 4.3 1.6 2.1.8 6.7 2.6 8.6 2.6-1.1.2-2.2-.3-3.2-.1 2.8 1.8 7.7 1 11 2.3-8.1.5-5.8-.3-10.2-1.3-1.2-.3-2.1-.2-3.3-.5-1.4-.3-1.8-.2-3.3-1-2.5-1.3-6.9-3.4-9.5-3.9 1.2 1 3.3 1.5 4.6 2.5-2.4-.4-9-3-11.3-4.1 1.4 1.1 4.8 2.9 6.4 3.6 1.3.6 2 1.2 3.1 1.6 2.6.9 15.1 5.1 16.9 6.1-2-.1-16.7-5.4-19.6-6.5-2-.8-4.7.2-6.8.4.5.4 5.2.3 5.9.3l-1.5.7c1.9.8 4.1 1.2 5.9 2 1.3.6 4.6 2.9 5.6 4-5.1-2.3-2.1-2.4-11-5.2l.6 1.2c-.9-.6-2.3-1.1-3.3-1.5-.8-.2-.5-.2-1.2-.1 2 1.5 4.9 2.4 7.1 3.7 2.4 1.3 4.4 2.7 6.8 3.9 2.5 1.3 4.8 1.2 7.4 1.6 3.9.7 8.3 3.5 14.4 4.6 2.6.4 4.5.5 7.4.5 2.7 0 5 .3 7.5.7l7.2 1.6c-3.9.8-8.8-2.3-12.1-1 .7.3 3.4.5 4.5.9 6.1 1.8 7.9.8 13.9.5 6.4-.4 12.8-2.1 19.1-3 2.2-.3 4.2-.7 6.5-1.2 2.4-.5 3.8-.6 6.3-1.2 2.2-.6 4.4-1.1 6.6-1.8 2.2-.7 4.3-1.4 6.4-1.7 2-.3 4.6-.5 6.5-1.5.9-.5 2.5-1.4 3.4-1.6 3.3-.9 6.8-2.9 10.1-4.3 2.3-.9 4.6-1.2 6.5-2.4 1.8-1.1 1.6-1.6 2.8-2.7.9-.9 2.2-1.8 3.2-2.5 2.1-1.6 1.6-2.1 2.3-2.6 1.1-.8 2.3-.7 3.3-1.7.1-1.9-.4-.9.9-2.9.6-1 .8-1.8 1.7-2.6 2.6-2.6 4.6-3.7 5.9-5 2.3-2.2 2.7-3.2 5.1-5.1 1.3-1 1.4-1.7 2.3-2.5 1.2-1 1.6.2 2.5-1.5-.4-1.3-1.3-1.2.7-2.6.9-.6 2-.9 2.8-1.7 1.2-1.3 1.6-2.3 1.4-3.9-.2-2.5.6-1.4 2.5-3.7.4-.5.9-1.6 1.5-2.5 1.3-1.9.8-.8 2.4-2 1.4-1 .8-1.4.5-2.7 3.5-2.6 1.9-5.7 3.9-8.5 1-1.5.7-1.5.6-2.9 1.6-1.6 2.4-2.9 3.9-4.4 1.1-1.1 2.1-3.5 2.1-4.5l-3.5 3.6c-.5.2-.2.1-.5.1.8-1.4 1.9-2.9 2.9-4.4 1.5-2.2.7-1.7 1.1-3.5.3-1.2 1.1-2.1 1.5-3.3 1-2.3.9-4.8 1.6-6.9.6-1.7 1.4-2.8 2.1-4.5.7-1.9 1.5-2.4 1.6-4.5.1-2 1.7-2.6 2.1-4.5.5-2.4.6-7.5-.3-9.6-.7-1.6-.2-2.6-.4-4.6-.4-4-.3-5.9-.3-9.7 0-3.2-.9-6.5-1.4-9.9-.4-2.7-.2-7.2-1.1-9.6v9.4c-3.6-.7-.2-2.9-1.9-4.3-1.1-.9-.9-1.3-1.2-2.7-.2-1 0-1.9.3-2.7-.8-.8-1 .4-1.4-4.1-.3-2.8-.6-3.8.2-4.1-.8-1-.6-.4-.8-1.8-.1-.7-.2-1.2-.4-1.9-.3-1.4-.4-2.6-.7-3.8-.3-1.3-.9-2.4-1.2-3.9-.3-1.8-.9-2.3-2-3.9 0 2.1 2.1 7.4 1.6 8.6-.9-.5-2.4-4.5-2.9-5.7-1.3-3.5-2.3-8.5-4-11.7-2.1-4.1-3.4-7.9-5.7-11.9-.7-1.1-.5-1.8-.9-2.9-.3-1-1-1.9-1.4-2.8-.5-1.1-.6-1.8-1-2.9-.4-1.1-1.2-2-1.8-3.1-1.2-2.1-2.2-3.9-4-5.5 1.1 1.8 1.7 3 3 4.6 1.5 2 1.3 2.7 2.2 4.6.8 1.7 1.6 2.6 2 4.5.4 2.2 1.3 2.6 2 4.5 2.1 5.5 3.7 7.7 5.2 13.3.4 1.4 1.1 3 1 4.4-1-1.8-2.2-4.5-3.2-6.4-1.2-2.5-1.2-3.9-2.2-6.2-2.6-5.7-2.3-6.7-5.7-12.5-.7-1.2-1.6-2.1-2.4-3.3-.7-1.1-1.1-2.1-2.1-3.2-1.9-2.4-2.6-3.6-3.9-6.2-1.2-2.3-7.8-9-9.7-9.9 1.5 2 4.3 4.4 6.1 6.4 2.2 2.5 3.5 5.1 5.3 7.9 2.7 4.4 7.1 10 8.4 15.1l.1.9c-2.6-2-2.3-3-3.5-5.6-1.5-3.1-1.5-1.9-2.9-6-.4-1.3-1-1.5-1.9-2.5-.9-1-1.4-2-1.9-3.1-.3-.6-3.9-5-4.4-5.4-3.6-3.2-2.6-3.6-4.3-5.4-.9-.9-1.6-1-2.4-2.3-.8-1.2-1-2.1-2.2-3-1.1-.8-1.4-1-2.4-2.1-2-2.1-5.3-2.6-7.2-5.3 0 1.5 7.4 6.4 8.7 8.1 1.5 1.9 2.8 2.8 4.3 5.1.7 1.1 1.4 1.7 2.2 2.6 1.8 2.1 1.6 2.7 4.1 4.7 1 .8 1.5 1.6 2.2 2.7 1.6 2.2 2.5 3 3.7 5.6 1.1 2.3 1.8 3 2.6 5.7.7 2.2 2 3.5 3.4 5.4l-1.3-.8c1.1 2.5 2.3 5.5 3.6 7.9 1.1 2.1 2.5 5.2 2 7.5-1-1.5-1.5-3.8-2.3-5.6l-2.3-5.5c-.4-.9-.6-1.9-.9-2.8-.4-1.1-.8-1.7-1.4-2.7-1-1.9-1.1-3.5-2.3-5.5-.6-.9-1.3-1.9-1.9-2.9l-3.4-5.7c-2.1-3.1-.9-2.1-4-4.4-.8-.6-1.3-1.3-2.1-1.9-2.1-1.5-2.9-2.8-3.8-3.5-.8-.5-.3-.2-.6-.3 2.1 3.3 5.4 5 7.6 8.3 1.8 2.5 5.6 7.4 6.7 10 .8 1.7 1.2 3.1 2.2 4.9.9 1.8 2.1 6.8 3.2 9.5l3.1 9.6c.2 1.8 0 2.7 1 4.6 1 1.9 2.4 7.3 2.7 9.4.3 1.8.8 2.9 1.3 4.7.5 1.7.3 3 .7 4.6.6 2.3 1 2.3.9 4.6v2.3c.1.8.3 1.6.3 2.3-1.3-2.6.1-4-1.5-8.1-.7-1.8-.4-3.4-1-5.2-.3-1-.8-1.8-1.1-2.8-.6-2.2-.6-3.4-1.9-5.5.2 3.1 2.8 10.8 2.6 14.5-1-2.8-1.1-5.7-1.8-8.6-.3-1.5-.7-2.9-1.1-4.3-.3-1.3-.6-3.1-1-4.3-.4-1.4-1.2-2.9-1.8-4.4-.6-1.8-1.1-2.7-1.9-4.5-.8-1.6-.9-2.6-1.2-4.3-.3-1.6-.8-2.7-1.3-4.4-.5-1.6-.4-2.8-.6-4.3-.3-1.8-1.5-2.9-2.4-4.6-.9-1.8-.9-2.7-2.3-4.5-1.2-1.6-2.2-2.8-2.9-4.7-.7-2-.7-2.7-2.3-4.5-1.5-1.6-2.1-2.9-3.3-4.5-1.2-1.5-2.3-2.2-3.5-4.1-.8-1.2-2.1-2.9-3.3-3.4 1.1 1.8 2.1 2.8 3.4 4.4 1.3 1.5 2.1 3.2 3.5 4.6 1.5 1.5 2.2 2.4 3.1 4.4.7 1.8 1.6 3.1 2.6 4.8.9 1.5 1.3 3.1 2 4.6.7 1.7 1.9 3.1 2.8 4.8.8 1.6 2.5 7.4 2.4 8.8-1.4-2-.8-2.7-1.8-4.4-1.2-2.1-1.3-2-1.8-4.3-.3-1.4-1.6-2.8-2-4.5-.5-1.9-1-2.4-1.8-4.3-.8-2-1.9-2.5-2.7-4.3-1.3-3-1.2-1.6-2.8-3.6-.7-.9-.6-1.2-1.6-2-3.7-2.7-1.4-4.9-8-8.6-1.5-.8-2.2-1-3.5-2.6-1.1-1.2-2.2-2.6-3.5-3.6-1.7-1.3-6.4-6.1-7-6.4-.7-.3-1.1-.4-1.9-.7-2.1-.9-7.3-4.6-9.1-5.1 3.4 3.5 9.6 5.3 12.4 8.4 1.6 1.8 2 2.3 3.8 3.6 1.4 1 2.7 2.3 4 3.5 1.3 1.2 2.6 2.7 4 3.6 1.8 1.2 2.6.4 4.2 2.5.9 1.2 2.7 3.5 3.4 4.8 1.5 2.8 2.2 2.4 3.4 4.6 1.1 1.9 1.7 2.3 3.2 5.2.5.9 1 1.4 1.5 2.2.6 1 .5 1.6.9 2.5.4.9 1 1.6 1.3 2.5.4.9.3 1.4.5 2.2.6 2 1.6 2.4 1.9 4.9.2 1.8 1.2 3.1 1.4 4.8.3 2 .8 2.9 1.4 4.8.5 1.5.5 3 .8 4.5-1.6-2.4-2.9-8.2-3.6-11.4-.5-1.9-1.2-3.7-1.7-5.7-.3-1.4-1.5-3.4-2.2-5.7-1-3.5-4.7-6.9-5.9-8.8-.6-1-1-2-1.8-2.9-.8-.9-1.5-1.4-2.4-2.5-1.3-1.8-5.1-6.4-6.6-7 .6 1.3 2.7 3.2 3.6 4.4.7.8 1 1.7 1.7 2.5.6.7 1.2 1.2 1.9 1.8 2.6 2.7 4.3 6.2 6.6 9.2 1.1 1.4 1.6 3.3 2.3 4.8l2.9 9.1c.2.9.4 1.4.6 2.2.2.9.2 1.4.3 2.1-1.8-3.8-3.4-8-5.3-11.9-.6-1.1-1.2-2.9-1.7-3.8-.3.1.2-.2 0 .2-.3.7.6.1-.2.2-1-1.3-.8-2-1.4-3-.4-.7-1.5-1.6-2.2-2.6-1.4-2-2-4.2-3.3-6-.7-1-1.5-1.7-2.2-2.6-.9-1.1-1.4-2.1-2.2-3.2-.8-1.1-3.6-3.2-5.1-3.6 1.8 1.9 3.3 3.1 4.8 5.4-2.4-1.5-2.4-3.6-6.6-5.8 1.3 2.4 6.3 5.8 9.4 11.6 2.5 4.7 6.1 8.3 8.7 13 1.4 2.6 5.4 10.3 6.1 12.8.6 2.1.9 3.9 1.6 6.1.6 2 1.3 4.2 1 6-.6-1.3-1-2.8-1.6-4.3-.6-1.4-1.1-2.9-1.6-4.3-1-2.8-2.1-5.6-3.2-8.4-2.4-6.5-1.4-3.2-3.1-6.2-2.8-5.3-6.5-10-10.4-14.4-.6-.7-1-1.3-1.6-2-1.8-2-1.9-.1-4.7-5.2-.9-1.6-1.9-1.8-3.1-2.9-1.3-1.2-1.8-2.9-3.3-3.9-.6-.4-1.2-.7-1.8-1.3-2.6-2.6-2.7-1.7-5.3-3.7l-1.8-1.2c-.3-.2-.5-.3-.9-.4l-.8-.2c1.2 1 2.2 1.5 3.5 2.3 1.4.9 2.3 2 3.5 2.9 1.9 1.4 1.9 2 3.4 3.6 1.1 1.2 2.2 1.7 3.4 3.2 1.3 1.7 1.9 2.4 3.3 3.9 1.3 1.3 2.2 3 3.3 4.1 1.4 1.4 2 1.5 3.3 3.6 6.9 10.9 7.6 8.5 12.4 21.6 1.8 3.9 6.2 14 5.7 17.2z" fill-rule="evenodd" clip-rule="evenodd" fill="#fff"/>
  <g id="flowerUpper" class="animatedFlower">
    <path class="st4" d="M169.9 45.3c.1 0 18.3-5.2 22-5.7l1.5-.2c3.6-.5 8.2-1.1 10-.7l-.2 1c-1.6-.4-6.1.3-9.7.7l-1.5.2c-3.7.5-21.8 5.7-21.9 5.7l-.2-1z"/>
    <path class="st4" d="M181.9 43c-.1-.5-2.8-2.2-2.1-9.1.5-2.2 3.4-10.7 6-12 2.8 4.3 2 8.4 1.6 11.4-.4 3-4.1 9.9-5.5 9.7z"/>
    <path class="st5" d="M183.8 28.9l-.2.4c1.4-1.9 2.7-3.1 2.7-3.1-.5 1.3-.7 1.8-1.9 3.3-.6.7-1.2 1.6-1.7 2.5-.4 1.3-.7 2.8-.8 4.3 1.7-2.5 3.5-4.2 3.5-4.2-.5 1.3-.7 1.8-1.9 3.3-.5.7-1.1 1.6-1.7 2.5-.1 1.4-.3 1.5-.6 3.4-.2-1.1-.4-2.2-.4-3.3-.1-7.2 4.2-14 4.2-14-.1 1.9-.2 2.5-1.2 4.9z"/>
    <path class="st4" d="M192 39.8c.2-.4-1.1-3.4 3.5-8.7 1.6-1.6 8.9-6.9 11.8-6.5-.1 5.2-3.1 8.1-5.1 10.3-2.1 2.2-9.1 5.9-10.2 4.9z"/>
    <path class="st5" d="M201.6 29.2l-.4.3c2.2-.8 4-1 4-1-1.1.8-1.6 1-3.5 1.7-.9.3-1.8.7-2.8 1.1-1.1.9-2.1 1.9-3 3.1 2.8-1.1 5.2-1.5 5.3-1.5-1.1.8-1.6 1-3.5 1.7-.9.3-1.8.6-2.8 1.1-.9 1.1-1.1 1.1-2.4 2.5.4-1 .9-2 1.5-2.9 4-6 11.3-9.2 11.4-9.2-1.1 1.3-1.7 1.7-3.8 3.1z"/>
    <path class="st4" d="M202.1 38.7c.4-.2 1.6-3.2 8.6-3.8 2.3 0 11.2 1.3 13 3.6-3.7 3.6-7.9 3.6-10.9 3.7-3.1.3-10.6-2-10.7-3.5z"/>
    <path class="st5" d="M216.3 38l-.5-.1c2.1 1 3.5 2.1 3.5 2.1-1.4-.2-1.9-.4-3.6-1.3-.8-.4-1.8-.8-2.8-1.2-1.4-.1-2.8-.1-4.3 0 2.8 1.2 4.8 2.6 4.8 2.6-1.4-.2-1.9-.4-3.6-1.3-.8-.4-1.7-.8-2.7-1.2-1.4.1-1.6 0-3.5.1 1-.4 2.1-.8 3.2-1 7-1.4 14.5 1.4 14.5 1.4-1.8.4-2.5.4-5-.1z"/>
    <path class="st4" d="M173.5 45.2c.3.4.1 3.6 6.2 7.1 2.1.9 10.7 3.6 13.3 2.2-1.8-4.8-5.6-6.6-8.3-8-2.7-1.5-10.5-2.6-11.2-1.3z"/>
    <path class="st5" d="M186.1 51.9l-.5-.1c2.4 0 4.1-.4 4.1-.4-1.3-.4-1.9-.4-3.8-.4-.9 0-2 0-3-.1-1.3-.5-2.6-1.1-3.9-1.9 3.1.1 5.4-.3 5.5-.3-1.3-.4-1.9-.4-3.8-.4-.9 0-1.9 0-3-.1-1.2-.7-1.4-.6-3.1-1.6.7.8 1.6 1.6 2.4 2.2 5.7 4.3 13.7 4.9 13.8 4.9-1.6-.9-2.3-1.2-4.7-1.8z"/>
    <path class="st4" d="M187.4 41.2c.2.3.1 3 5.1 5.8 1.7.8 8.8 2.9 10.9 1.8-1.5-4-4.6-5.4-6.8-6.6-2.2-1.1-8.6-2-9.2-1z"/>
    <path class="st5" d="M197.8 46.8l-.4-.1c1.9 0 3.3-.3 3.4-.3-1.1-.3-1.5-.4-3.2-.3-.8 0-1.6 0-2.5-.1-1.1-.4-2.2-.9-3.2-1.5 2.5.1 4.5-.3 4.5-.3-1.1-.3-1.5-.4-3.2-.3-.7 0-1.6 0-2.4-.1-1-.6-1.2-.5-2.6-1.3.6.7 1.3 1.3 2 1.8 4.7 3.5 11.3 4 11.3 4-1.2-.8-1.7-1-3.7-1.5z"/>
    <path class="st6" d="M165.9 61.1c9.2 1.8 22.3 5.8 28.4 13.7l-.8.6c-6-7.7-18.8-11.6-27.8-13.4l.2-.9z"/>
    <path class="st6" d="M180.7 65.9s5.2-9.2 11-7.6c5.9 1.6 5.7 2 5.7 2s-7 8.8-11.4 7.6c-4.4-1.1-5.3-2-5.3-2z"/>
    <path class="st7" d="M184.7 66.3c0 .2.8.3 1.8.4 1 0 1.8 0 1.8-.2s-.8-.3-1.8-.4c-1-.1-1.8 0-1.8.2zm2.1-1.6c0 .2.8.3 1.8.4 1 0 1.8 0 1.8-.2s-.8-.3-1.8-.4c-1-.1-1.8 0-1.8.2zm1.7-1.5c0 .2.8.3 1.8.4 1 0 1.8 0 1.8-.2s-.8-.3-1.8-.4c-1-.1-1.8 0-1.8.2zm2.1-1.7c0 .2.8.3 1.8.4 1 0 1.8 0 1.8-.2s-.8-.3-1.8-.4c-1-.1-1.8 0-1.8.2z"/>
    <path class="st6" d="M191.6 72.6s10.1 2.9 9.9 9c-.2 6.1-.6 6-.6 6s-10.2-4.8-10.1-9.3c.2-4.6.8-5.7.8-5.7z"/>
    <path class="st7" d="M192.2 76.6c-.2 0-.1.8.1 1.8s.5 1.7.6 1.7c.2 0 .1-.8-.1-1.8s-.5-1.7-.6-1.7zm2 1.7c-.2 0-.1.8.1 1.8s.5 1.7.6 1.7c.2 0 .1-.8-.1-1.8s-.4-1.7-.6-1.7zm1.9 1.3c-.2 0-.1.8.1 1.8s.5 1.7.6 1.7c.2 0 .1-.8-.1-1.8s-.5-1.7-.6-1.7zm2.1 1.6c-.2 0-.1.8.1 1.8s.5 1.7.6 1.7c.2 0 .1-.8-.1-1.8-.2-.9-.5-1.7-.6-1.7z"/>
    <path class="st6" d="M176.4 64.5s-4.9 9.3-.4 13.4 4.7 3.7 4.7 3.7 3.6-10.6.3-13.7c-3.3-3.1-4.6-3.4-4.6-3.4z"/>
    <path class="st7" d="M178.9 67.7c.1-.1.7.5 1.3 1.3.6.8.9 1.5.8 1.6s-.7-.5-1.3-1.3c-.5-.8-.9-1.5-.8-1.6zm-.2 2.6c.1-.1.7.5 1.3 1.3.6.8.9 1.5.8 1.6-.1.1-.7-.5-1.3-1.3-.5-.8-.9-1.5-.8-1.6zm-.3 2.2c.1-.1.7.5 1.3 1.3.6.8.9 1.5.8 1.6-.1.1-.7-.5-1.3-1.3-.6-.7-.9-1.5-.8-1.6zm-.3 2.7c.1-.1.7.5 1.3 1.3.6.8.9 1.5.8 1.6-.1.1-.7-.5-1.3-1.3-.6-.8-.9-1.5-.8-1.6z"/>
    <path class="st8" d="M172.5 98.7c.2 0 .4.1.5.2l1.2-3c-.6-1.3-1.1-2.4-1.3-2.9-.1-.3-.4-1-.8-1.8l-1.5 3.9c0 .2-.1.4-.2.6l-.3.8c.1 0 .2-.1.3 0 .5 0 .8.4.8.9s-.4.8-.9.8c-.4 0-.7-.3-.8-.6h-.1c0 .1.1.2.1.3 0 .5-.4.8-.8.8-.5 0-.8-.4-.8-.8s.2-.6.6-.8c-.4 0-.8-.4-.8-.8 0-.5.4-.8.8-.8.1 0 .3 0 .4.1-.1-.1-.1-.3-.1-.4 0-.5.4-.9.9-.9h.2c.6-1.5 1.1-2.9 1.7-4.3-.4-.9-.8-1.9-1.2-2.8-.4-.8-.7-1.6-1-2.1-.7 1.9-1.5 3.7-2.2 5.6.4 0 .8.4.8.8 0 .5-.4.8-.8.8-.2 0-.4-.1-.5-.2v.1c0 .5-.4.8-.8.8-.5 0-.8-.4-.8-.8 0-.2.1-.5.3-.6-.4-.1-.6-.4-.6-.8 0-.5.4-.8.8-.8.3 0 .6.2.7.5.8-2.2 1.7-4.4 2.6-6.6-.3-.6-.9-1.9-1.7-3.5-.7 1.6-1.3 3.3-1.9 5 .1 0 .2-.1.3-.1.5 0 .8.4.8.9s-.4.8-.9.8c-.3 0-.6-.2-.7-.4l-.1.1c0 .5-.4.8-.8.8-.5 0-.8-.4-.8-.8s.2-.6.6-.8c-.4 0-.8-.4-.8-.8 0-.5.4-.8.8-.8.3 0 .6.2.7.5.7-1.9 1.4-3.7 2.2-5.6-1.6-3.3-3.3-7.1-3.3-7.1l.9-.4s1.9 4.2 3.6 7.6l6 .9c-.1-.1-.1-.2-.1-.2-.2-.4.1-.9.5-1.1.4-.2.9.1 1.1.5.1.4 0 .8-.3 1 .1-.1.2-.1.3-.2.4-.1.9.1 1 .5.1.4-.1.9-.5 1-.3.1-.7 0-.9-.3.1.4-.1.9-.5 1-.4.1-.9-.1-1-.5-.1-.3 0-.7.3-.9h-.3c-.1.4-.4.7-.8.7-.5 0-.8-.4-.8-.8v-.1c-1.1-.2-2.3-.4-3.4-.5.8 1.6 1.4 2.9 1.6 3.2l.2.3 4.2.6v-.1c0-.5.4-.8.8-.8.5 0 .8.4.8.8 0 .1 0 .2-.1.3h.3c-.1-.1-.1-.1-.1-.2-.2-.4.1-.9.5-1.1.4-.2.9.1 1.1.5.1.4 0 .8-.4 1v.1c.1-.1.2-.2.4-.3.4-.1.9.1 1 .5.1.4-.1.9-.5 1-.3.1-.7 0-.9-.3.1.4-.1.9-.5 1-.4.1-.9-.1-1-.5-.1-.3 0-.7.3-.9-1.8-.3-3.6-.6-5.3-.8.2.5.5 1.1.8 1.8l.6 1.3 6.7-.4c-.2-.1-.3-.4-.3-.6 0-.4.4-.7.8-.7s.7.4.7.8c0 .2-.1.4-.2.5h.6c-.1-.1-.2-.3-.2-.5 0-.4.4-.7.8-.7s.7.4.7.8v.2c.2-.2.5-.4.8-.4.5 0 .9.4.9.9s-.4.9-.9.9h-.3c0 .1.1.2 0 .3 0 .4-.4.7-.8.7s-.7-.4-.7-.8c0-.2.1-.3.2-.4l-8.2.5.5 1.1 4.2.6v-.1c0-.5.4-.8.8-.8.5 0 .8.4.8.8 0 .1 0 .2-.1.3l.5.1c-.1-.1-.2-.2-.2-.4-.2-.4.1-.9.5-1.1.4-.2.9.1 1.1.5.1.4-.1.9-.5 1.1h.1c.1-.1.2-.2.3-.2.4-.1.9.1 1 .5.1.4-.1.9-.5 1-.3.1-.7 0-.9-.2.1.4-.1.9-.5 1-.4.1-.9-.1-1-.5-.1-.3 0-.6.2-.8-1.8-.3-3.6-.6-5.4-.8l.7 1.5c.2.5.7 1.6 1.3 2.9l.2.4 2.7.9v-.3c0-.5.4-.9.9-.9s.9.4.9.9c0 .3-.2.6-.4.7l.5.2c0-.1-.1-.2-.1-.3-.1-.5.3-.9.7-1 .5-.1.9.3 1 .7.1.4-.2.8-.6.9v.2c.1-.1.3-.2.5-.2.5-.1.9.2.9.7.1.5-.2.9-.7.9-.3.1-.7-.1-.8-.4.1.4-.3.8-.7.9-.4.1-.9-.2-.9-.7-.1-.4.1-.7.4-.8-1.2-.4-2.4-.8-3.7-1.2l1 2.2c0-.1.1-.2.1-.3.3-.4.8-.5 1.2-.2.4.3.5.8.2 1.2l-.3.3 1.8 1.6c.1-.4.4-.7.8-.7.5 0 .8.4.8.8 0 .2-.1.4-.2.6.5.1.8.5.8.9 0 .5-.4.9-.9.9s-.9-.4-.9-.9l-.1-.1v.1c0 .5-.4.8-.8.8-.5 0-.8-.4-.8-.8s.3-.8.8-.8l-1.3-1.2s0 .1-.1.1c-.3.4-.8.4-1.2.2-.3-.2-.4-.6-.3-.9-.3.4-.8.4-1.1.2-.4-.3-.4-.8-.2-1.1.2-.3.5-.4.8-.3l-1.1-2.4c-.5 1.2-.9 2.4-1.4 3.5.1 0 .1-.1.2-.1.5-.1.9.2 1 .6.1.5-.2.9-.6 1-.4.1-.8-.1-1-.5v.1c.1.1.1.2.2.3.1.4-.2.9-.6 1-.4.1-.9-.2-1-.6-.1-.3.1-.7.3-.9-.4.1-.9-.2-1-.6-.1-.4.2-.9.6-1h.3c-.1-.1-.1-.3-.1-.5-.8-.4-.4-.7.1-.7zm-.1 1.7zm-3.2-4.5zm8.1 4.3zm-8.5-3.2zm-4.9-11.3z"/>
    <path class="st9" d="M155.5 29.9c-.8-.6-2.3-5.2-5.9-5-3.6.2-5.3 2.8-7.4 4-2.1 1.2-5.1-1-6.1-.8-1 .1-1.4 5.3-3.4 5.6-2.1.3-8 1.3-7.9 3.6.1 2.3 2.5 4.7.1 5.7-2.4.9-5.7 4-3 6.8s2.7 2.7 1.2 5.9c-1.5 3.2-1.3 7 1.8 8.2 3.1 1.1-.8 4.4 2 6.8 2.7 2.4 4.2 2.3 7.3 2.9 3.1.6 4.3 6.5 8.7 5.6 4.5-.9 4.8-2.2 8.5-.8 3.7 1.4 11.9 4.9 13.5.3 1.7-4.6 1.6-5.9 4.3-6.5 2.6-.6 3.4-.4 2.7-4.5-.6-4.1 1.3-7.3 2.5-9.9 1.2-2.6 3.1-4.1.1-6.9-3-2.8-2.2-5.7-1.2-8.6 1.1-2.9-.3-5.1-4.4-5.9-4.1-.8-4.6-1.4-5.9-3.8-1.4-2.7 0-4.7-7.5-2.7z"/>
    <path class="st10" d="M167.8 52.6s-1-1.1-1.1-3.4c-.2-2.3-.6-3.1-2.7-4.5-2.1-1.5-3-2.4-4.2-3.6-1.2-1.2-2-.5-5.1-1.6-3.1-1.1-3.5-3-6.6-2.1-3.1.9-4.2 2-6.6 1.8-2.5-.2-4.5-.3-4.8 2.2-.3 2.5 2.2 4 1.5 7-.7 3-3.3 6-3.4 8.7-.1 2.7.5 2.5 2.8 4.2 2.3 1.7 2.4 3.7 3.7 5.8 1.3 2.2 2.8 2.2 5.6 2.2s2.5 0 5.6 1.1c3.1 1.1 4.3 1.8 6.2-.4 1.9-2.2 2.7-5 5.1-5.7 2.4-.7 3.6-1.8 2.7-4.4-.8-2.6 3.4-3.3 1.3-7.3z"/>
    <path class="st11" d="M130.9 58.3s-3 5.6-1.8 7c.8.9 6.2 2.6 11 4.1 3.7 1.2 7 2.3 8 2.9.7.5 2.3.2 3.9-.4 2.8-.9 3-.7 5.8-1.7v.1c-1 1.4-3 2.7-5 3.5-2.1.8-4.4 1-5.7.2-.7-.5-4-1.5-7.5-2.7-5-1.6-10.7-3.4-11.8-4.7-1-.8-.5-5.5 3.1-8.3z"/>
    <path class="st11" d="M156.4 31.9c1.6.3 3 .9 3.7 2.1.3.6.6 1.3.8 2.1.4 1.2.8 2.5 1.7 2.8 1.2.5 2.3 1.5 3 2.6.6 1.1.9 2.3.4 3.6-.3.8-.2 1.4 0 1.9s.6 1 1.1 1.5c.6.6 1.3 2.1 1.9 3.7.6 1.6 1.1 3.4 1.2 4.7.1 1.1-.1 2.6-.4 4.1-.5 2-1.2 3.9-1.6 4.7-1.3 2.3-3.4 4.2-7.9 4.6.7-.3 2.1-1.4 3.3-2.6 1.3-1.2 2.6-2.5 2.9-3 .4-.6 1-2.4 1.4-4.2.3-1.3.5-2.5.4-3.4-.1-1.1-.6-2.8-1.1-4.3-.5-1.4-1-2.5-1.4-3-.6-.6-1.1-1.3-1.5-2.1-.4-.9-.4-1.9 0-3.3.2-.7.1-1.4-.3-2-.5-.8-1.3-1.5-2.1-1.8-1.7-.7-2.2-2.4-2.8-4-.2-.6-.4-1.3-.7-1.7-.3-.6-1.2-.9-2.3-1.1-1.3-.2-2.7-.3-3.8-.3-2.7 0-5.6-2.4-5.6-2.4 5.7.8 6.5.2 9.7.8zm1.5 28.7c-2 1.9 0 3.1-6.6 7.2 0 0 5-.8 6.2-3.3.4-.9 1.1-1.7 1.8-2.4s1.5-1.2 2.3-1.4c1.2-.4 2.1-.9 2.3-1.7.2-.8-.3-1.7-1.8-2.8l-1.2 1.6c.7.5 1.1.8 1.1.8s-.4.1-1 .3c-1.1.1-2.1.8-3.1 1.7zm-7.8 2.3c-2 2.1-3.3 3.8-6 2.9-.8-.1-1.5-.4-2.1-.8-.6-.4-1-1.4-1.5-2-.6-.7-1.2-1.5-1.6-2.4-.3-.6-.5-1.5-.7-2.3-.2-1.2-.5-2.4-1.3-3.2-.5-.5-.9-.7-1.3-.9-.3-.2-.5-.3-.6-1.1-.1-.7.2-1.9.5-3.1.5-1.7 1.2-3.3 1.6-3.7.2-.2 1.1-.4 2.1-.7.9-.2 1.9-.5 2.6-.8.7-.4 1.8-.9 2.8-1.1.6-.2 1.2-.2 1.5-.2-.1.4-.5 1-.8 1.6-.5.7-1.6 2-2.6 3.1-.7.8-1.3 1.5-1.7 2l-.1.2c-1.2 1.5-3.6 4.6-.3 7.5.1-2.8-2-2.1 1.5-6.6l.1-.2c1.1-1.4 3.2-2.2 4.9-5 .5-.8.9-1.5 1.1-2.1.3-1.1 0-1.9-1.3-2.3-.7-.2-1.7-.1-2.7.1-1.2.3-2.4.8-3.3 1.3-.5.3-1.3.5-2.2.7-1.3.3-2.5.6-3.1 1.3-.5.6-1.4 2.5-2 4.4-.4 1.5-.7 3-.6 4 .2 1.8.8 2.1 1.7 2.5.2.1.5.3.8.6.4.4.6 1.3.8 2.2.2.9.4 1.9.9 2.8.5.9 1.1 1.9 1.8 2.7.7.8 1.4 1.5 2.1 2 .8.6 1.8.9 2.9 1.1 1.1.2 2.2.1 3-.2 1.8-.8 3.1-4.3 3.1-4.3zm13.7-4.1l-1.9-.4 1.9.4zm-3-1.2L162 56c-1-.8-1.1-1.5-1.2-2.1-.1-.7-.2-1.3-.7-2.1-.5-.8-1.2-1.4-1.8-2l-.4-.4c.8-.2 1.7-.5 1.9-1.7.3-1.5-1.2-3.1-2.7-4.7-.4-.4-.7-.8-1.1-1.1-.9-1-2.2-2-3.6-2.8-1.4-.8-2.9-1.5-4.2-1.8-1-.2-2.2-.6-3.3-1-1.5-.5-2.9-.9-3.7-1h-.1c-1.5-.1-4.7-.4-6.7 1.3-.7.6-1.8 1.2-2.8 1.7-1.5.8-2.9 1.5-3.3 2.5-.4.7-.7 1.5-.7 2.2-.1.9.2 1.8 1.2 2.5.2.2.3.5.3.9 0 .7-.3 1.5-.6 2-.7 1.1 0 1.8.5 2.5.2.2.4.5.3.9.4 2.6-.4 4.2-.4 4.2 1.5-2.5 1.2-2.5 1.5-4-.2-1.3-1.1-2.5-1.1-2.6.5-.7 1.3-1.8 1.4-2.9 0-1 .1-2-.8-2.6-.3-.2-.4-.5-.3-.7 0-.4.2-1 .5-1.5.2-.4 1.3-1 2.5-1.6 1.1-.6 2.3-1.2 3.2-2 1.4-1.2 4-1 5.2-.8h.1c.6.1 1.9.5 3.3.9 1.2.4 2.4.8 3.4 1 1 .3 2.4.9 3.6 1.6 1.3.8 2.4 1.7 3.2 2.5.3.4.7.8 1.1 1.2 1.2 1.2 2.3 2.4 2.2 2.9 0 .1-.4.2-.7.3-.9.2-1.6.4-1.6 1.5 0 .8.6 1.5 1.5 2.2.5.5 1.1 1 1.5 1.6.3.4.3.8.4 1.3 0 1 .1 2.1 1.8 3.3z"/>
    <path class="st11" d="M162.8 50.8s1.3-.9 1.1-2.3c-.1-.7-.1-1.6-.1-2.3 0-.9.1-1.8 0-1.8-.6-.3-1.3-.7-1.9-1.1-.6-.4-1.1-.8-1.4-.8-.4-.1-1.1-.1-1.7.1-.4.1-.7.3-.9.5-.6.9-1.1 1.3-1.9 1.8-.4.2-.8.5-1.3.9-.6.5-1.2.9-1.9 1.4-1.1.8-2.2 1.6-2.7 2.1-.2.3-.5.7-.9 1.1-.8 1-1.8 2.2-1.9 2.7-.1.5-.2 1.8-.2 3 0 .7.1 1.2.3 1.5.1.1.2.3.4.3.1 0 .2.1.4.1.1 0 .2 0 .3-.1.2-.1.3-.3.4-.6.4-.9.6-1.2.7-1.5.1-.1.1-.2.2-.5.2-.8.6-1 1.3-.9.6.1.8.6 1.1 1.3.3.6.7 1.6.8 1.6 2.6 0 2.5-.6 4.9-1.9-.2 1-.9 1.9-1.8 2.6-1 .8-2.2 1.3-3.1 1.3-1 0-1.6-.8-2.1-1.6l-.2.4c-.3.7-.7 1.2-1.2 1.5-.4.3-.9.4-1.3.4s-.9-.1-1.3-.2c-.5-.2-1-.6-1.3-1-.4-.6-.6-1.5-.6-2.5-.1-1.3.1-2.8.2-3.5.2-.9 1.3-2.4 2.3-3.6.3-.4.6-.8.8-1.1.6-.9 1.9-1.7 3.1-2.6.6-.4 1.3-.9 1.7-1.3.6-.5 1-.8 1.4-1 .6-.4 1-.6 1.3-1.2.5-.7 1.2-1.2 2-1.4 1-.3 2.1-.3 2.7-.1.6.1 1.4.6 2.1 1.1.6.4 1.1.8 1.6 1 1.4.6 1.3 2 1.3 3.7 0 .7-.1 1.4 0 2 .4 2.4-4.1 5-4.1 5l1.4-2.5z"/>
    <path class="st11" d="M168.8 38.8c0 1.1-.6 1.7-1.3 2.1.2 0 .4.1.7.1 1.4.2 3 .4 3.3 2.2.2 1.1.1 1.6 0 2.1-.1.4-.2.9 0 2 .5 2.8-.6 3.2-2 5.8.1-.7.3-1.5.3-2.4 0-.9 0-2-.2-3.1-.3-1.4-.1-2.1 0-2.7.1-.4.1-.7 0-1.4-.1-.4-.9-.5-1.6-.6-1-.1-1.9-.3-2.5-1-.8-.9-.5-1.6.1-2.2.2-.2.4-.3.7-.5.3-.2.7-.4.7-.5 0-.6-5.2-1.9-5.2-1.9 4.7-1.2 7 1.6 7 2z"/>
    <path class="st12" d="M128.7 21s6.1-6.8 3.4-8.3c-1.2-1.3-4.7 2.7-5.8 4.2-.6 1.1-1.8-3.3-3.2-3.7-1.5-.4-1.9 4.3-1.5 5.4.4 1.1-2-1.7-2.9-.8-.9 1-.4 4.5-.1 5.5.3 1-2.1-2.5-3.1-1.4-1.1 1.1-2.7 10.3 0 13.4 5.1 1.3 9.8.4 11-.2 1.2-.9 0-3-1-2.9-1.1.1 3-.3 3.7-1.3.7-1-.4-3.7-1.8-3.8-1.5-.1 6-1.7 5.8-3.4-.3-1.8.2-3.3-4.5-2.7z"/>
    <path class="st13" d="M123.4 15.1l1.6 6.6c2.8-4 5.3-7.4 5.3-7.4l.8.6s-3.1 4.3-6.3 8.9l6.5-1.4.2 1-7.5 1.7c-1.1 1.5-2.2 3.1-3.1 4.4l6.4-1.4.2 1-7.5 1.6c-.6.9-1.1 1.6-1.5 2.2l6.8.3v1l-7.4-.3c-.1.2-.2.4-.3.5l-.9-.5c.1-.2.4-.6.8-1.2l-1.9-7.5 1-.2 1.6 6.6c.8-1.1 1.7-2.5 2.8-4l-1.9-7.5 1-.2 1.7 6.6 2.5-3.6-1.8-7.4.9-.4z"/>
    <path class="st12" d="M107.4 37.9s-5-7.7-7.2-5.4c-1.6.9 1.4 5.3 2.5 6.6.9.9-3.7.8-4.4 2.2-.7 1.3 3.7 2.9 4.9 2.8 1.2-.1-2.2 1.5-1.5 2.6.7 1.1 4.2 1.6 5.2 1.5 1-.1-3 1.4-2.1 2.7.8 1.3 9.2 5.2 12.9 3.4 2.6-4.6 2.8-9.4 2.6-10.7-.6-1.4-2.8-.8-3.1.3-.2 1 .4-3-.3-3.9-.7-.9-3.7-.6-4.2.8s-.1-6.3-1.8-6.5c-1.6-.2-2.9-1.1-3.5 3.6z"/>
    <path class="st13" d="M100.3 41.4l6.8.1c-3.1-3.7-5.8-7-5.8-7l.8-.6s3.4 4.1 7 8.4l.3-6.6h1l-.3 7.7c1.2 1.4 2.4 2.9 3.5 4.1l.3-6.6h1l-.3 7.7c.7.8 1.3 1.5 1.7 2l2-6.5.9.3-2.2 7 .4.4-.7.7c-.2-.1-.5-.5-1-1.1l-7.7-.1v-1l6.8.1c-.9-1-2-2.3-3.1-3.7l-7.7-.1v-1l6.8.1-2.8-3.4-7.7-.1v-.8z"/>
    <path class="st14" d="M97.8 68.8S83 69.9 79.1 70.9c-2 .5-4.9 1.8-7.4 3.2-2.4 1.3-4.6 2.7-5.3 3.6-.8 1-1.5 2-2.1 2.8-.6.8-1 1.5-1.2 2l-.9-.4c.2-.6.7-1.3 1.3-2.2.6-.9 1.4-1.8 2.2-2.8.8-1 3.1-2.5 5.6-3.9 2.6-1.4 5.6-2.7 7.6-3.3 3.9-1.1 18.8-2.1 18.9-2.1v1z"/>
    <path transform="rotate(-62.149 87.26 66.772)" class="st14" d="M86.8 62.4h1v8.7h-1z"/>
    <path class="st14" d="M92.1 69.1c-.2.4-1.4 3-2.4 5.6-.5 1.4-1 2.8-1.3 3.9l-1-.2c.2-1.2.7-2.6 1.3-4.1 1-2.6 2.2-5.2 2.4-5.7l1 .5zm-6.5.6c-.2.4-1.4 3-2.4 5.6-.5 1.4-1.4 4.8-1.6 5.9l-1-.2c.2-1.2 1.1-4.6 1.7-6 1-2.6 2.2-5.2 2.4-5.7l.9.4zM75.9 72c-.2.4-1.5 2.9-2.7 5.5-.6 1.4-1.6 4.7-1.9 5.8l-1-.2c.3-1.1 1.3-4.5 2-6 1.1-2.6 2.5-5.1 2.7-5.5l.9.4z"/>
    <path transform="rotate(-62.149 76.696 68.102)" class="st14" d="M76.2 63.8h1v8.7h-1z"/>
    <path transform="rotate(-73.949 65.321 73.638)" class="st14" d="M64.8 69.3h1V78h-1z"/>
    <path class="st14" d="M60.8 70c1.4 0 2.6 1.2 2.5 2.7 0 1.4-1.2 2.6-2.7 2.5-1.4 0-2.6-1.2-2.5-2.7.1-1.4 1.2-2.5 2.7-2.5z"/>
    <path class="st15" d="M60.8 71.3c.7 0 1.3.6 1.3 1.3 0 .7-.6 1.3-1.3 1.3-.7 0-1.3-.6-1.3-1.3-.1-.7.5-1.3 1.3-1.3z"/>
    <path class="st14" d="M73.5 63.2c1.4 0 2.6 1.2 2.5 2.7 0 1.4-1.2 2.6-2.7 2.5-1.4 0-2.6-1.2-2.5-2.7.1-1.4 1.3-2.5 2.7-2.5z"/>
    <path class="st15" d="M73.5 64.5c.7 0 1.3.6 1.3 1.3 0 .7-.6 1.3-1.3 1.3-.7 0-1.3-.6-1.3-1.3 0-.7.6-1.3 1.3-1.3z"/>
    <path class="st14" d="M82.1 60.6c1.4 0 2.6 1.2 2.5 2.7 0 1.4-1.2 2.6-2.7 2.5-1.4 0-2.6-1.2-2.5-2.7 0-1.4 1.2-2.6 2.7-2.5z"/>
    <path class="st15" d="M82 61.9c.7 0 1.3.6 1.3 1.3 0 .7-.6 1.3-1.3 1.3-.7 0-1.3-.6-1.3-1.3 0-.8.6-1.3 1.3-1.3z"/>
    <path class="st14" d="M61.7 80.3c1.4 0 2.6 1.2 2.5 2.7 0 1.4-1.2 2.6-2.7 2.5-1.4 0-2.6-1.2-2.5-2.7.1-1.4 1.3-2.5 2.7-2.5z"/>
    <path class="st15" d="M61.7 81.7c.7 0 1.3.6 1.3 1.3 0 .7-.6 1.3-1.3 1.3-.7 0-1.3-.6-1.3-1.3 0-.8.6-1.4 1.3-1.3z"/>
    <path class="st14" d="M70.5 82c1.4 0 2.6 1.2 2.5 2.7 0 1.4-1.2 2.6-2.7 2.5-1.4 0-2.6-1.2-2.5-2.7.1-1.4 1.3-2.5 2.7-2.5z"/>
    <path class="st15" d="M70.5 83.3c.7 0 1.3.6 1.3 1.3 0 .7-.6 1.3-1.3 1.3-.7 0-1.3-.6-1.3-1.3 0-.7.6-1.3 1.3-1.3z"/>
    <path class="st14" d="M81 80.1c1.4 0 2.6 1.2 2.5 2.7 0 1.4-1.2 2.6-2.7 2.5-1.4 0-2.6-1.2-2.5-2.7.1-1.4 1.3-2.5 2.7-2.5z"/>
    <path class="st15" d="M81 81.4c.7 0 1.3.6 1.3 1.3 0 .7-.6 1.3-1.3 1.3-.7 0-1.3-.6-1.3-1.3 0-.7.6-1.3 1.3-1.3z"/>
    <path class="st14" d="M88.2 77c1.4 0 2.6 1.2 2.5 2.7 0 1.4-1.2 2.6-2.7 2.5-1.4 0-2.6-1.2-2.5-2.7.1-1.4 1.3-2.6 2.7-2.5z"/>
    <path class="st15" d="M88.2 78.3c.7 0 1.3.6 1.3 1.3 0 .7-.6 1.3-1.3 1.3-.7 0-1.3-.6-1.3-1.3 0-.8.6-1.3 1.3-1.3z"/>
    <path class="st16" d="M104.4 77.8s-6.1 3.3-8.1 5.9c-1 1.3-2.1 3.5-3.1 5.6-.9 2-1.5 4-1.6 5.3-.2 1.7-.8 6.1-1.6 9.8-.5 2.4-1.1 4.5-1.7 5.4-.7 1.1-1.6 2.1-2.5 3-1 1.1-2.1 2-3 2.7l-.6-.8c.8-.6 1.9-1.5 2.9-2.6.9-.9 1.7-1.9 2.4-2.9.5-.8 1.1-2.8 1.6-5.1.8-3.6 1.4-8 1.5-9.7.1-1.4.8-3.5 1.7-5.6.9-2.2 2.1-4.4 3.2-5.8 2.1-2.8 8.4-6.2 8.4-6.2l.5 1z"/>
    <path class="st16" d="M82.9 115c.3-.6-6.2-1.5-6.3 4.6 2.9 1.3 7.6-.9 6.3-4.6z"/>
    <path class="st17" d="M81.7 115.9c.2-.4-3.8-.9-3.9 2.9 1.8.8 4.7-.6 3.9-2.9z"/>
    <path class="st16" d="M84.1 113.6c.6 0-.7-6.3-6.5-4.4-.2 3.2 3.4 6.9 6.5 4.4z"/>
    <path class="st17" d="M82.9 112.8c.4 0-.5-3.9-4.1-2.7-.1 2 2.2 4.3 4.1 2.7z"/>
    <path class="st16" d="M88.2 109c.6-.1-2-6-7.3-2.9.5 3.1 4.8 6 7.3 2.9z"/>
    <path class="st17" d="M86.9 108.5c.4-.1-1.2-3.7-4.5-1.8.2 1.9 2.9 3.7 4.5 1.8z"/>
    <path class="st16" d="M90.1 102.1c.6-.2-3.3-5.4-7.7-1.3 1 3 5.9 4.9 7.7 1.3z"/>
    <path class="st17" d="M88.6 101.9c.4-.1-2-3.4-4.8-.8.7 1.8 3.7 3 4.8.8z"/>
    <path class="st16" d="M91 95.3c.6-.2-3.3-5.4-7.7-1.3 1 3 5.9 4.9 7.7 1.3z"/>
    <path class="st17" d="M89.5 95.1c.4-.1-2-3.4-4.8-.8.7 1.8 3.7 3 4.8.8z"/>
    <path class="st16" d="M93.4 87.9c.6-.2-3.3-5.4-7.7-1.3 1.1 3 6 4.9 7.7 1.3z"/>
    <path class="st17" d="M92 87.7c.4-.1-2-3.4-4.8-.8.7 1.8 3.7 3 4.8.8z"/>
    <path class="st16" d="M98.4 81c.6 0-1.1-6.2-6.7-4-.2 3.2 3.7 6.7 6.7 4z"/>
    <path class="st17" d="M97.1 80.3c.4 0-.7-3.9-4.2-2.5 0 1.9 2.4 4.1 4.2 2.5z"/>
    <path class="st16" d="M83.6 114.1c-.6-.2-1 6.3 5.1 6 1.1-3.1-1.4-7.6-5.1-6z"/>
    <path class="st17" d="M84.6 115.2c-.4-.1-.6 3.9 3.2 3.7.7-1.9-.9-4.7-3.2-3.7z"/>
    <path class="st16" d="M87.8 109.8c-.6-.2-1 6.3 5.1 6 1.1-3-1.4-7.5-5.1-6z"/>
    <path class="st17" d="M88.8 110.9c-.4-.1-.6 3.9 3.2 3.7.6-1.8-1-4.6-3.2-3.7z"/>
    <path class="st16" d="M90.3 102.2c-.6-.2-1 6.3 5.1 6 1.1-3-1.5-7.5-5.1-6z"/>
    <path class="st17" d="M91.2 103.3c-.4-.1-.6 3.9 3.2 3.7.7-1.8-.9-4.6-3.2-3.7z"/>
    <path class="st16" d="M91.5 94.4c-.6-.2-1 6.3 5.1 6 1.1-3-1.4-7.5-5.1-6z"/>
    <path class="st17" d="M92.5 95.6c-.4-.1-.6 3.9 3.2 3.7.6-1.9-1-4.7-3.2-3.7z"/>
    <path class="st16" d="M93.2 88.1c-.6-.2-1 6.3 5.1 6 1.1-3.1-1.5-7.6-5.1-6z"/>
    <path class="st17" d="M94.1 89.2c-.4-.1-.6 3.9 3.2 3.7.7-1.9-.9-4.7-3.2-3.7z"/>
    <path class="st16" d="M97.7 81.3c-.5-.4-2.9 5.6 3 7.2 2-2.5 1-7.6-3-7.2z"/>
    <path class="st17" d="M98.3 82.6c-.3-.2-1.8 3.5 1.9 4.5 1.2-1.5.5-4.7-1.9-4.5z"/>
    <path class="st18" d="M107.6 58.9c4.4.1 8 3.8 7.8 8.3-.1 4.4-3.8 8-8.3 7.8-4.4-.1-8-3.8-7.8-8.3.2-4.4 3.9-7.9 8.3-7.8z"/>
    <path class="st11" d="M107.5 64.1c1.5 0 2.8 1.3 2.7 2.9 0 1.5-1.3 2.8-2.9 2.7-1.5 0-2.8-1.3-2.7-2.9 0-1.5 1.3-2.7 2.9-2.7z"/>
    <path class="st19" d="M102.8 65.8s-.4-1.4-1.2-2.5c1.8 0 3.7-.7 3.8-2 0 0 .3-.5.7-1.1.8 1.6 2 2.9 3.2 2.5 0 0 1.8.5 3.3.1-1.3 1.7-2.1 4.1-.9 5.1 0 0 .4 1.1 1.2 2.1-1.8.6-3.4 1.7-3.1 3 0 0-.4 1-.4 2.1-.4-2.2-2.7-5.5-4.5-4.7 0 0-1.9-.3-3.3.3 1.3-1.7 2.4-3.9 1.2-4.9zm6.7 10.2c.1.8.4 1.5 1.2 1.9 2.1 1.2 4-.4 5.9.5 1.9.9 1.4-2.5 1.9-4.1.4-1.2 0-3-1.1-4.1 1.1-.9 1.7-2.3 3.1-2.7 2-.6-.6-2.8-1.2-4.3s-3-3-4.8-2.1c.7-2.1-.9-3.8-.2-5.7.7-1.9-2.6-1.1-4.2-1.5-1.3-.3-3.4.4-4.2 1.8-1.6-1.2-3.7-.5-5.1-1.8-1.5-1.4-2 2-3 3.3-.9 1.2-.9 3.8.5 5-1.5.7-2.3 2.4-3.9 2.6-2 .3.3 2.8.7 4.4.5 1.6 2.8 3.4 4.7 2.6.2-.1.3-.2.5-.3 0 .1-.1.2-.1.3-.7 2.4 1.2 3.9.8 5.9-.5 2 2.7.8 4.4 1 1.4.4 3.7-.9 4.1-2.7z"/>
    <path class="st16" d="M112.5 80.8c-12.4 4.8-11.7 10.8-6.6 21.9.5 1.1 2.7-5.3 3.5-6.4.8-1.1 4-4.6 4.7-6.7.6-2.1.8-5.2-1.6-8.8z"/>
    <path class="st17" d="M112.5 80.8c-3.3 1.3-5.6 2.6-7.2 4.1-.3.3-1.5 5.1.1 5.6.5.2 3.5-4.4 4-4.1 1.5 1 2.8 2.7 3.2 5.9.7-1 1.3-2 1.6-2.8.5-2 .7-5.1-1.7-8.7z"/>
    <path class="st20" d="M127.4 79.3c2.3.1 4.1 2 4.1 4.3-.1 2.3-2 4.1-4.3 4.1-2.3-.1-4.1-2-4.1-4.3.1-2.3 2-4.1 4.3-4.1z"/>
    <path class="st21" d="M130.1 82.7s2.3-1.8 3.8-1 2.9 1.8 3.7 2.3c.8.5-1.8 3.3-3.8 3.4-2 .1-3.3-.9-3.9-1.7-.5-1-.9-2.3.2-3z"/>
    <path class="st21" d="M127.7 79.9s.4-2.9 2-3.4 3.3-.7 4.3-.9c.9-.2 1 3.6-.4 5.1-1.4 1.5-3 1.7-4 1.4-1-.3-2.2-.9-1.9-2.2zm-2.3 1.7s-2.9-.5-3.4-2.1c-.4-1.6-.6-3.4-.8-4.3-.2-.9 3.7-.9 5.1.5 1.4 1.4 1.6 3 1.3 4-.2 1-.9 2.2-2.2 1.9z"/>
    <path class="st21" d="M125.2 83.9s-1.6 2.5-3.2 2.3c-1.7-.2-3.4-.7-4.3-.9-.9-.2.5-3.7 2.4-4.6 1.8-.8 3.4-.3 4.2.3.8.7 1.7 1.9.9 2.9z"/>
    <path class="st21" d="M125.8 85.3s1.8 2.3 1.1 3.8c-.8 1.5-1.8 2.9-2.3 3.7-.5.8-3.3-1.8-3.4-3.8-.1-2 .9-3.3 1.7-3.9.8-.4 2.2-.9 2.9.2z"/>
    <path class="st21" d="M129.2 85.5s2.9.7 3.2 2.4c.3 1.7.4 3.4.5 4.3.1 1-3.7.6-5.1-.9-1.3-1.5-1.4-3.1-1-4.1.3-.9 1.1-2.1 2.4-1.7z"/>
    <path class="st22" d="M125.2 79.6c.3 0 .6.3.6.6s-.3.6-.6.6-.6-.3-.6-.6c0-.4.3-.6.6-.6zm-1.2 1.7c.3 0 .6.3.6.6s-.3.6-.6.6-.6-.3-.6-.6c0-.4.2-.6.6-.6zm-.1 1.9c.3 0 .6.3.6.6s-.3.6-.6.6-.6-.3-.6-.6c.1-.4.3-.6.6-.6zm.9 2c.3 0 .6.3.6.6s-.3.6-.6.6-.6-.3-.6-.6c0-.4.3-.7.6-.6z"/>
    <path class="st23" d="M187.2 56c11.9-.4 25.7 3 34.9 10.9 1.8 1.5 4.3 4.6 6.4 7.3 1.3 1.6 2.4 3 3.2 3.8l-.7.7c-.8-.8-1.9-2.2-3.2-3.8-2.1-2.6-4.6-5.7-6.3-7.2-9-7.7-22.6-11.1-34.2-10.7l-.1-1z"/>
    <path class="st23" d="M215.1 56.8s-3.9-1.5-5.2 3.4c2.3 1.9 5.5-1.8 5.2-3.4z"/>
    <path class="st24" d="M215.1 56.8s-3.9-1.5-5.2 3.4c1.8-.7 2-2.9 5.2-3.4z"/>
    <path class="st23" d="M219.9 59s-3.9-1.5-5.2 3.4c2.3 1.9 5.5-1.8 5.2-3.4z"/>
    <path class="st24" d="M219.9 59s-3.9-1.5-5.2 3.4c1.8-.7 2-2.9 5.2-3.4z"/>
    <path class="st23" d="M225.1 63.1s-3.4-2.5-5.9 1.9c1.7 2.5 5.8-.3 5.9-1.9z"/>
    <path class="st24" d="M225.1 63.1s-3.4-2.5-5.9 1.9c1.9-.2 2.7-2.3 5.9-1.9z"/>
    <path class="st23" d="M229.2 66.5s-3.4-2.5-5.9 1.9c1.8 2.4 5.9-.3 5.9-1.9z"/>
    <path class="st24" d="M229.2 66.5s-3.4-2.5-5.9 1.9c2-.3 2.8-2.3 5.9-1.9z"/>
    <path class="st23" d="M233 70.8s-3.4-2.5-5.9 1.9c1.7 2.5 5.8-.3 5.9-1.9z"/>
    <path class="st24" d="M233 70.8s-3.4-2.5-5.9 1.9c1.9-.2 2.7-2.3 5.9-1.9z"/>
    <path class="st23" d="M235.9 74.5s-3.4-2.5-5.9 1.9c1.7 2.4 5.8-.4 5.9-1.9z"/>
    <path class="st24" d="M235.9 74.5s-3.4-2.5-5.9 1.9c1.9-.3 2.7-2.3 5.9-1.9z"/>
    <path class="st23" d="M234.1 85s3-4.4-2.8-7.4c-2.9 2.4.8 7.4 2.8 7.4z"/>
    <path class="st24" d="M234.1 85s3-4.4-2.8-7.4c.5 2.5 3.1 3.4 2.8 7.4z"/>
    <path class="st23" d="M226.3 82s-1.8-3.8 3.1-5.4c2 2.2-1.5 5.6-3.1 5.4z"/>
    <path class="st24" d="M226.3 82s-1.8-3.8 3.1-5.4c-.7 1.8-2.8 2.2-3.1 5.4z"/>
    <path class="st23" d="M223.7 78.7s-1.8-3.8 3.1-5.4c2 2.1-1.5 5.6-3.1 5.4z"/>
    <path class="st24" d="M223.7 78.7s-1.8-3.8 3.1-5.4c-.7 1.8-2.8 2.2-3.1 5.4z"/>
    <path class="st23" d="M221.3 74.8s-2.6-3.3 1.7-6c2.5 1.8-.2 5.9-1.7 6z"/>
    <path class="st24" d="M221.3 74.8s-2.6-3.3 1.7-6c-.2 2-2.2 2.9-1.7 6z"/>
    <path class="st23" d="M217.3 71.5s-2.6-3.3 1.7-6c2.5 1.8-.1 6-1.7 6z"/>
    <path class="st24" d="M217.3 71.5s-2.6-3.3 1.7-6c-.2 2-2.2 2.9-1.7 6z"/>
    <path class="st23" d="M213 68.7s-2.6-3.3 1.7-6c2.5 1.8-.1 6-1.7 6z"/>
    <path class="st24" d="M213 68.7s-2.6-3.3 1.7-6c-.1 2-2.2 2.9-1.7 6z"/>
    <path class="st23" d="M208.3 66.4s-2.6-3.3 1.7-6c2.5 1.7-.1 5.9-1.7 6z"/>
    <path class="st24" d="M208.3 66.4s-2.6-3.3 1.7-6c-.2 2-2.2 2.9-1.7 6z"/>
  </g>
  <g id="flowerLower" class="animatedFlower--lower">
    <path class="st4" d="M223.5 292.8c.1 0 18.8-3 22.4-4.1l1.5-.5c3.5-1.1 7.9-2.5 9.4-3.6l-.6-.8c-1.3 1-5.7 2.4-9.1 3.4l-1.5.5c-3.5 1.1-22.2 4.1-22.2 4.1l.1 1z"/>
    <path class="st4" d="M235.3 289.8c.1.5-1.6 3.2 2 9.2 1.4 1.8 7.7 8.3 10.6 8.4.7-5.1-1.7-8.5-3.4-11-1.7-2.7-7.9-7.4-9.2-6.6z"/>
    <path class="st5" d="M243.1 301.8l-.3-.3c2.1 1.1 3.7 1.6 3.8 1.6-1-1-1.4-1.3-3.2-2.2-.8-.4-1.7-1-2.6-1.6-.9-1.1-1.8-2.2-2.5-3.5 2.6 1.6 4.9 2.3 4.9 2.3-1-1-1.4-1.3-3.2-2.2-.8-.4-1.7-.9-2.5-1.5-.7-1.2-.9-1.2-2-2.9.2 1.1.6 2.1 1.1 3.1 3 6.5 9.7 10.9 9.7 10.9-.9-1.5-1.4-2-3.2-3.7z"/>
    <path class="st4" d="M245.9 288.4c.3.3.5 3.6 6.8 6.4 2.1.7 11 2.5 13.4.9-2.3-4.6-6.2-6-9-7.2-2.8-1.1-10.6-1.4-11.2-.1z"/>
    <path class="st5" d="M259.1 293.9l-.5-.1c2.4-.3 4-.8 4-.8-1.4-.2-1.9-.3-3.9 0-.9.1-2 .2-3 .2-1.3-.4-2.7-.8-4.1-1.5 3.1-.2 5.4-.9 5.4-.9-1.4-.2-1.9-.3-3.9 0-.9.1-1.9.2-3 .2-1.2-.6-1.5-.5-3.3-1.3.8.8 1.7 1.4 2.6 2 6.1 3.7 14.2 3.5 14.2 3.5-1.4-.7-2-1-4.5-1.3z"/>
    <path class="st4" d="M255.4 285.1c.5 0 2.8 2.2 9.4-.2 2-1 9.6-6 10.2-8.8-4.9-1.7-8.6.1-11.4 1.2-2.9 1.1-8.7 6.4-8.2 7.8z"/>
    <path class="st5" d="M268.7 279.7l-.4.3c1.5-1.8 2.3-3.4 2.3-3.4-1.1.8-1.5 1.2-2.8 2.7-.6.7-1.3 1.5-2 2.3-1.2.7-2.5 1.3-3.9 1.8 2.1-2.3 3.2-4.4 3.2-4.4-1.1.8-1.5 1.2-2.8 2.7-.6.7-1.2 1.5-2 2.2-1.3.4-1.4.7-3.2 1.4 1.1 0 2.2-.2 3.3-.4 7-1.7 12.5-7.5 12.5-7.5-1.6.5-2.2.8-4.2 2.3z"/>
    <path class="st4" d="M226.8 291.4c.1-.5-1.4-3.3 2.6-9 1.5-1.7 8.2-7.8 11.1-7.7.4 5.2-2.3 8.3-4.1 10.8-1.8 2.4-8.4 6.7-9.6 5.9z"/>
    <path class="st5" d="M235.4 279.9l-.4.3c2.2-1 3.8-1.4 3.9-1.4-1 .9-1.5 1.2-3.3 2-.8.4-1.8.8-2.7 1.4-1 1-1.9 2.1-2.7 3.4 2.7-1.4 5.1-2 5.1-2-1 .9-1.5 1.2-3.3 2-.8.4-1.7.8-2.6 1.4-.8 1.1-1 1.2-2.2 2.7.3-1.1.7-2.1 1.3-3.1 3.4-6.3 10.4-10.3 10.4-10.3-1.1 1.5-1.6 2-3.5 3.6z"/>
    <path class="st4" d="M241.1 289c.1-.4-1.2-2.7 2.1-7.4 1.2-1.4 6.7-6.4 9.1-6.3.3 4.2-1.9 6.8-3.4 8.8-1.4 2.1-6.8 5.6-7.8 4.9z"/>
    <path class="st5" d="M248.1 279.6l-.3.2c1.8-.8 3.2-1.1 3.2-1.2-.9.7-1.2 1-2.7 1.6-.7.3-1.5.7-2.2 1.2-.8.8-1.6 1.7-2.2 2.8 2.2-1.2 4.2-1.6 4.2-1.6-.9.7-1.2 1-2.7 1.6-.7.3-1.4.7-2.2 1.1-.6.9-.8 1-1.8 2.2.3-.9.6-1.7 1-2.5 2.8-5.2 8.5-8.4 8.5-8.4-.8 1.3-1.2 1.7-2.8 3z"/>
    <path class="st6" d="M213.2 280.1c7.6-5.5 17.7-14.7 19.9-24.5l-1-.2c-2.1 9.5-12.1 18.5-19.5 23.9l.6.8z"/>
    <path class="st6" d="M224.5 269.6s8.6 6.1 13.2 2.2c4.6-3.9 4.3-4.2 4.3-4.2s-10.1-5-13.5-2.1c-3.5 2.9-4 4.1-4 4.1z"/>
    <path class="st7" d="M228 267.5c-.1-.1.6-.6 1.5-1.1.9-.5 1.6-.7 1.7-.6.1.1-.6.6-1.5 1.1-.9.5-1.6.8-1.7.6zm2.6.6c-.1-.1.6-.6 1.5-1.1.9-.5 1.6-.7 1.7-.6.1.1-.6.6-1.5 1.1-.8.4-1.6.7-1.7.6zm2.2.6c-.1-.1.6-.6 1.5-1.1.9-.5 1.6-.7 1.7-.6.1.1-.6.6-1.5 1.1-.9.5-1.7.7-1.7.6zm2.6.7c-.1-.1.6-.6 1.5-1.1.9-.5 1.6-.7 1.7-.6.1.1-.6.6-1.5 1.1-.9.4-1.7.7-1.7.6z"/>
    <path class="st6" d="M231.6 258.8s7.9-6.9 5.2-12.3-3.1-5.2-3.1-5.2-7.2 8.6-5.2 12.7 3.1 4.8 3.1 4.8z"/>
    <path class="st7" d="M230.4 255c-.1 0-.5-.7-.7-1.7-.2-1-.3-1.8-.2-1.8.1 0 .5.7.7 1.7.3 1 .4 1.8.2 1.8zm1.1-2.4c-.1 0-.5-.7-.7-1.7-.2-1-.3-1.8-.2-1.8.1 0 .5.7.7 1.7.3.9.4 1.8.2 1.8zm1.2-2c-.1 0-.5-.7-.7-1.7-.2-1-.3-1.8-.2-1.8.1 0 .5.7.7 1.7.2 1 .3 1.8.2 1.8zm1.2-2.3c-.1 0-.5-.7-.7-1.7-.2-1-.3-1.8-.2-1.8.1 0 .5.7.7 1.7.3.9.3 1.7.2 1.8z"/>
    <path class="st6" d="M221.3 272.6s-8.4-6.3-6.1-11.9c2.3-5.6 2.7-5.4 2.7-5.4s7.8 8.1 6.1 12.3c-1.7 4.2-2.7 5-2.7 5z"/>
    <path class="st7" d="M222.2 268.7c.2 0 .4-.7.6-1.7.2-1 .2-1.8 0-1.8s-.4.7-.6 1.7c-.1 1-.2 1.8 0 1.8zm-1.3-2.3c.2 0 .4-.7.6-1.7.2-1 .2-1.8 0-1.8s-.4.7-.6 1.7c-.1.9-.1 1.8 0 1.8zm-1.3-1.9c.2 0 .4-.7.6-1.7.2-1 .2-1.8 0-1.8s-.4.7-.6 1.7c-.1 1-.1 1.8 0 1.8zm-1.4-2.3c.2 0 .4-.7.6-1.7.2-1 .2-1.8 0-1.8s-.4.7-.6 1.7c-.1 1-.1 1.8 0 1.8z"/>
    <path class="st8" d="M203.2 243.4c.2-.1.3-.2.4-.4.8.7 1.5 1.5 2.3 2.2 0 1.4 0 2.6.1 3.2 0 .4 0 1.1.1 1.9-1-1-2.1-1.9-3.1-2.9-.1-.2-.2-.3-.4-.4l-.6-.6c.1 0 .2 0 .3-.1.4-.2.6-.7.4-1.1-.2-.4-.7-.6-1.1-.4-.3.2-.5.5-.5.9 0-.1 0-.2-.1-.3-.2-.4-.7-.6-1.1-.4-.4.2-.6.7-.4 1.1.2.3.5.5.8.5-.4.2-.5.7-.3 1.1.2.4.7.6 1.1.4l.3-.3c0 .1 0 .3.1.4.2.4.8.6 1.2.4 0 0 .1 0 .1-.1 1.1 1.1 2.3 2.1 3.4 3.2 0 1 .1 2.1.1 3.1v2.3c-1.5-1.4-2.9-2.8-4.4-4.2.4-.2.5-.7.3-1.1-.2-.4-.7-.6-1.1-.4-.2.1-.3.2-.4.4v-.1c-.2-.4-.7-.6-1.1-.4-.4.2-.6.7-.4 1.1.1.2.3.4.5.4-.3.2-.4.7-.2 1 .2.4.7.6 1.1.4.3-.1.5-.5.5-.8 1.7 1.6 3.4 3.3 5.1 4.9v3.8c-1.3-1.2-2.6-2.4-3.9-3.7.1 0 .2 0 .3-.1.4-.2.6-.7.4-1.1-.2-.4-.7-.6-1.1-.4-.3.1-.4.4-.5.7l-.1-.1c-.2-.4-.7-.6-1.1-.4-.4.2-.6.7-.4 1.1.2.3.5.5.8.5-.4.2-.5.7-.3 1.1.2.4.7.6 1.1.4.3-.1.5-.5.4-.8 1.4 1.4 2.9 2.8 4.3 4.1v7.8h1v-8.4c1.7-1.1 3.4-2.2 5.1-3.4v.3c0 .5.5.8.9.7.5 0 .8-.5.7-.9 0-.4-.3-.7-.7-.7h.3c.5 0 .8-.5.7-.9 0-.5-.5-.8-.9-.7-.3 0-.6.3-.7.6-.1-.4-.5-.8-.9-.7-.4 0-.8.4-.7.9 0 .4.3.6.6.7l-.2.2c-.2-.3-.7-.5-1-.3-.4.2-.6.7-.4 1.1l.1.1c-1 .7-1.9 1.3-2.9 1.9v-4c1.2-.8 2.3-1.6 3.5-2.3v.1c.2.4.7.6 1.1.4.4-.2.6-.7.4-1.1 0-.1-.1-.2-.2-.2l.2-.1v.3c0 .5.5.8.9.7.5 0 .8-.5.7-.9 0-.4-.4-.7-.8-.7l-.1-.1c.1.1.3.1.5.1.5 0 .8-.5.7-.9 0-.5-.5-.8-.9-.7-.3 0-.6.3-.7.6-.1-.4-.5-.8-.9-.7-.4 0-.8.4-.7.9 0 .4.3.6.6.7l-4.5 3v-3.4l6.2-2.4c-.1.2-.1.5 0 .7.2.4.6.5 1 .3s.5-.6.3-1c-.1-.2-.2-.3-.4-.4l.5-.2c-.1.2-.1.4 0 .6.2.4.6.5 1 .3s.5-.6.3-1c0-.1-.1-.1-.1-.2.3.1.6.2.9 0 .5-.2.6-.8.4-1.2-.2-.5-.8-.6-1.2-.4-.1 0-.2.1-.2.2 0-.1 0-.2-.1-.3-.2-.4-.6-.5-1-.3s-.5.6-.3 1c.1.2.2.3.3.3l-7.7 3v-1.1c1.2-.8 2.4-1.6 3.5-2.4v.1c.2.4.7.6 1.1.4.4-.2.6-.7.4-1.1 0-.1-.1-.2-.2-.2l.4-.3c-.1.1-.1.3-.1.4 0 .5.5.8.9.7.5 0 .8-.5.7-.9 0-.4-.4-.8-.9-.8l.1-.1c.1.1.3.1.4.1.5 0 .8-.5.7-.9 0-.5-.5-.8-.9-.7-.4 0-.6.3-.7.6-.1-.4-.5-.8-.9-.7-.4 0-.8.4-.7.9 0 .3.2.6.5.7l-4.5 3-.1-1.7c0-.5 0-1.8-.1-3.1v-.4c.7-.7 1.4-1.3 2-2 0 .1 0 .2.1.3.2.5.8.6 1.2.4s.6-.8.4-1.2c-.1-.3-.4-.4-.7-.5l.4-.4v.3c.1.4.6.7 1 .6.4-.1.7-.6.6-1.1-.1-.4-.5-.6-.9-.6l-.1-.1c.2.1.4.1.5 0 .4-.1.7-.6.5-1-.1-.4-.6-.7-1-.5-.3.1-.6.4-.6.7-.1-.4-.6-.7-1-.5-.4.1-.7.6-.5 1 .1.3.4.6.7.6-.9.9-1.9 1.8-2.8 2.7v-2.4c.1.1.2.2.3.2.4.2.9.1 1.1-.3.2-.4.1-.9-.3-1.1-.1-.1-.3-.1-.4-.1l1-2.2c.2.3.7.5 1 .3.4-.2.6-.7.4-1.1-.1-.2-.3-.3-.5-.4.4-.2.5-.8.3-1.2-.2-.5-.8-.6-1.2-.4-.4.2-.6.8-.4 1.2l-.1.1v-.1c-.2-.4-.7-.6-1.1-.4-.4.2-.6.7-.4 1.1.2.4.6.5 1 .4l-.7 1.6-.1-.1c-.4-.2-.9-.1-1.1.3-.2.3-.1.7.1.9-.4-.2-.9-.1-1.1.3-.2.4-.1.9.3 1.1.3.2.7.1.9-.1v2.7c-.9-.9-1.8-1.7-2.7-2.6h.2c.5-.1.8-.5.7-1-.1-.5-.5-.8-1-.7-.4.1-.7.5-.7.9l-.1-.1v-.4c-.1-.4-.5-.7-1-.6-.4.1-.7.5-.6 1 .1.3.3.6.7.7-.4.1-.7.5-.6 1 .1.4.5.7 1 .6.1 0 .2 0 .2-.1 0 .2 0 .4.1.5.9.3 1.4.5 1.8.3zm-.8-1.6zm-.9 5.5zm5.4-7.4zm-6.3 6.6zm.4 12.2z"/>
    <path class="st9" d="M217 312.9c-.5.9.1 5.7-3.3 7-3.4 1.3-6-.3-8.4-.5-2.4-.2-4.3 3.1-5.2 3.3-1 .3-3.5-4.2-5.5-3.6-2 .6-7.8 2.2-8.7 0-.9-2.1.3-5.4-2.3-5.2-2.6.2-6.9-1.2-5.6-4.9 1.3-3.7 1.3-3.6-1.4-5.8-2.7-2.2-4.2-5.8-1.9-8.1 2.3-2.4-2.6-3.7-1.1-7s2.8-3.9 5.4-5.7c2.6-1.8 1.1-7.7 5.5-8.7 4.4-1 5.3 0 8-2.8s8.6-9.5 12.1-6 4 4.7 6.6 4.1 3.2-1.1 4.4 2.9c1.2 4 4.2 6 6.4 7.9 2.2 1.8 4.5 2.4 3 6.2-1.5 3.8.4 6.1 2.6 8.3 2.2 2.2 1.9 4.7-1.4 7.2s-3.6 3.2-3.7 5.9c.1 2.9 2.1 4-5.5 5.5z"/>
    <path class="st10" d="M218.5 287s-.4 1.4.4 3.6.8 3-.5 5.2-1.7 3.4-2.3 5c-.6 1.6-1.6 1.3-4 3.6-2.3 2.4-1.9 4.2-5.1 4.7-3.2.5-4.6-.1-6.7 1.2-2.1 1.2-4 2.2-5.3.1-1.3-2.1.3-4.6-1.7-7-1.9-2.4-5.5-4-6.7-6.5-1.2-2.4-.6-2.5.7-5 1.3-2.5.6-4.3.9-6.9.3-2.5 1.6-3.2 4.1-4.4 2.5-1.2 2.2-1 4.5-3.4s3.1-3.5 5.8-2.3c2.7 1.2 4.6 3.4 7 3 2.5-.4 4 .1 4.4 2.9.6 2.9 4.7 1.8 4.5 6.2z"/>
    <path class="st11" d="M182.6 297.6s-5.1-3.8-4.6-5.5c.3-1.1 4.5-5 8.2-8.4 2.8-2.6 5.4-5 6-6.1.5-.7 2-1.2 3.7-1.3 2.9-.4 3-.6 6-.9h-.1c-1.5-.9-3.9-1.2-6-1-2.3.2-4.4.9-5.2 2.3-.5.8-2.9 3.1-5.7 5.6-3.9 3.6-8.2 7.7-8.7 9.3-.4.9 2 5 6.4 6z"/>
    <path class="st11" d="M217 310.6c1.3-1 2.4-2.1 2.4-3.5 0-.7 0-1.5-.1-2.2-.2-1.3-.3-2.6.3-3.3.9-1 1.5-2.3 1.6-3.7.1-1.2-.2-2.5-1.1-3.4-.6-.6-.8-1.2-.8-1.7 0-.6.2-1.2.4-1.8.3-.8.3-2.4.1-4.1-.2-1.7-.5-3.6-.9-4.8-.4-1-1.2-2.3-2.1-3.5-1.3-1.6-2.7-3.1-3.5-3.6-2.2-1.5-4.9-2.3-9.1-.8.8 0 2.5.4 4.1.9 1.7.5 3.4 1.1 3.9 1.5.6.4 1.9 1.7 3.1 3.2.8 1 1.5 2.1 1.8 2.9.4 1.1.6 2.7.8 4.3.1 1.4.1 2.7-.1 3.3-.3.8-.5 1.6-.5 2.6.1 1 .4 2 1.4 3 .5.5.7 1.2.6 1.9-.1.9-.5 1.8-1.1 2.5-1.2 1.4-1 3.1-.8 4.8.1.7.2 1.3.1 1.9 0 .6-.7 1.3-1.6 2-1 .8-2.3 1.4-3.3 1.9-2.4 1.1-4 4.5-4 4.5 4.7-3 5.8-2.9 8.4-4.8zM206.2 284c-2.6-.8-1.3-2.8-9-3.7 0 0 4.9-1.4 7 .4.8.6 1.7 1.1 2.6 1.4.9.3 1.9.4 2.7.3 1.3-.2 2.2-.1 2.8.6.5.7.4 1.7-.5 3.3l-1.7-1c.5-.8.6-1.1.6-1.1s-.4.1-1 .1c-1.1.3-2.3.1-3.5-.3zm-8.1 1.3c-2.7-1.1-4.7-2.1-6.6-.1-.6.4-1.2 1-1.5 1.6-.4.6-.3 1.6-.5 2.5-.2.9-.4 1.9-.4 2.8 0 .7.2 1.5.4 2.3.3 1.2.6 2.4.2 3.5-.2.7-.5 1.1-.8 1.4-.2.3-.4.5-.1 1.2.2.7 1 1.6 1.8 2.6 1.2 1.3 2.5 2.5 3 2.7.3.1 1.2-.1 2.2-.3.9-.2 1.9-.4 2.7-.3.8 0 2 0 3-.2.6-.1 1.2-.3 1.5-.5-.3-.3-.8-.7-1.4-1.1-.7-.5-2.3-1.1-3.7-1.7-1-.4-1.8-.8-2.4-1l-.2-.1c-1.7-.9-5.3-2.7-3.5-6.7 1.3 2.5-.9 2.8 4.1 5.3l.2.1c1.5.8 3.8.7 6.5 2.4.7.5 1.5 1 1.9 1.5.7.9.8 1.7-.2 2.7-.6.5-1.5.9-2.5 1-1.2.2-2.6.3-3.5.2-.5 0-1.4.1-2.2.3-1.3.3-2.5.5-3.4.1-.7-.3-2.3-1.7-3.6-3.2-1-1.1-1.9-2.4-2.2-3.3-.5-1.7-.1-2.3.4-3 .2-.2.4-.5.5-.9.2-.6 0-1.4-.2-2.3-.2-.9-.5-1.9-.4-2.9.1-1.1.2-2.2.5-3.2s.6-2 1.1-2.7c.5-.8 1.3-1.6 2.2-2.2.9-.6 1.9-1 2.8-1.1 1.7 0 4.3 2.6 4.3 2.6zm14.2-2.2l-1.6 1.2 1.6-1.2zm-2.2 2.4l1.7 1c-.6 1.1-.4 1.8-.2 2.5.2.6.4 1.3.3 2.2-.1.9-.5 1.8-.8 2.5-.1.2-.2.4-.2.5.8-.2 1.7-.2 2.5.8 1 1.3.2 3.3-.5 5.4-.2.5-.3 1-.5 1.5-.4 1.2-1.2 2.7-2.1 4.1-.9 1.4-2 2.6-3 3.4-.8.6-1.7 1.5-2.5 2.3-1.1 1.1-2.2 2.1-2.9 2.5l-.1.1c-1.3.8-4.1 2.4-6.6 1.7-.9-.2-2.1-.3-3.3-.4-1.7-.1-3.2-.1-4.1-.8-.6-.5-1.2-1.1-1.6-1.7-.4-.8-.5-1.7 0-2.7.1-.2.1-.6-.1-.9-.3-.7-.9-1.3-1.4-1.6-1.1-.7-.8-1.6-.6-2.5.1-.3.1-.7-.1-1-.7-2.5-2.2-3.6-2.2-3.6 2.5 1.6 2.1 1.7 3.1 3 .4 1.3 0 2.8.1 2.8.7.5 2 1.1 2.5 2.1.4.9.9 1.8.4 2.6-.2.3-.1.6 0 .8.2.4.6.8 1.1 1.1.3.3 1.6.3 2.9.4 1.3.1 2.6.1 3.7.4 1.8.5 4-.8 5.1-1.5l.1-.1c.5-.3 1.5-1.2 2.6-2.2.9-.8 1.8-1.7 2.7-2.4.8-.7 1.8-1.8 2.6-3s1.5-2.5 1.8-3.6c.1-.5.3-1 .5-1.6.5-1.6 1.1-3.1.8-3.5-.1-.1-.5 0-.8 0-.9.2-1.6.3-2.1-.6-.4-.7 0-1.6.4-2.6.3-.6.6-1.4.7-2.1.1-.5-.1-.9-.2-1.3-.4-1.1-.8-2.2.3-4z"/>
    <path class="st11" d="M214.7 290.8s1.6.2 2 1.6c.2.7.6 1.4.9 2.1.4.8.8 1.6.7 1.6-.5.5-.9 1.2-1.3 1.9-.4.6-.7 1.2-.9 1.4-.3.2-.9.5-1.6.6-.4.1-.8 0-1-.1-.9-.6-1.6-.7-2.5-.8-.4-.1-.9-.1-1.5-.3-.7-.2-1.5-.3-2.3-.4-1.3-.2-2.7-.5-3.3-.8-.4-.2-.8-.4-1.3-.7-1.2-.6-2.5-1.3-2.8-1.7-.3-.4-1-1.6-1.4-2.6-.3-.6-.4-1.2-.4-1.5 0-.2.1-.3.2-.5.1-.1.2-.2.3-.2.1 0 .2-.1.3 0 .2 0 .4.1.7.4.7.6 1 .9 1.2 1 .1.1.2.1.4.4.5.6 1 .7 1.5.3.5-.4.5-.9.4-1.7 0-.7-.1-1.8 0-1.8 2.4-1.1 2.5-.6 5.2-.3-.6-.8-1.6-1.3-2.7-1.6-1.2-.3-2.5-.2-3.3.1-.9.4-1.1 1.4-1.2 2.4l-.3-.3c-.5-.5-1.1-.7-1.7-.8-.5-.1-1 0-1.4.1-.4.2-.8.4-1 .7-.4.4-.6.9-.7 1.5-.1.7.1 1.6.5 2.5.5 1.2 1.3 2.5 1.7 3 .6.8 2.2 1.6 3.5 2.3.5.2.9.4 1.2.6.9.5 2.5.8 3.9 1 .8.1 1.5.3 2.1.4.7.2 1.3.3 1.7.3.7.1 1.1.2 1.7.5.7.5 1.6.5 2.4.4 1-.1 2-.6 2.5-1s1-1.1 1.4-1.9c.3-.6.7-1.2 1-1.5 1-1.1.3-2.4-.4-3.9-.3-.6-.6-1.2-.8-1.8-.7-2.3-5.9-2.8-5.9-2.8l2.3 1.9z"/>
    <path class="st11" d="M225.3 299.2c-.4-1-1.3-1.2-2.1-1.3.2-.1.4-.2.6-.4 1.2-.8 2.5-1.6 2.1-3.4-.3-1-.6-1.5-.9-1.9-.3-.4-.6-.7-.8-1.8-.7-2.8-1.9-2.6-4.3-4.4.4.5.9 1.2 1.3 2s.8 1.8 1.1 2.9c.4 1.4.8 2 1.2 2.5.2.3.4.6.6 1.2.1.4-.6.8-1.2 1.2-.8.5-1.6 1-1.9 1.9-.3 1.2.2 1.6 1 1.9.3.1.5.1.8.1.3 0 .8.1.8.2.2.6-3.9 3.9-3.9 4 4.9-.9 5.7-4.4 5.6-4.7z"/>
    <path class="st12" d="M196.5 332.3s8.4 3.6 6.6 6.1c-.5 1.7-5.4-.4-7-1.3-1.1-.8-.2 3.8-1.4 4.7-1.2 1-3.5-3.1-3.6-4.3-.1-1.2-1.1 2.4-2.3 1.9-1.2-.5-2.3-3.9-2.4-4.9-.1-1-.8 3.2-2.2 2.6-1.4-.6-6.8-8.2-5.7-12.1 4.1-3.4 8.7-4.5 10-4.4 1.4.3 1.3 2.7.3 3.1-1 .4 2.9-1 3.9-.4 1.1.6 1.3 3.5 0 4.2-1.3.7 6.2-1 6.7.6s1.6 2.7-2.9 4.2z"/>
    <path class="st13" d="M194.3 339.9l-1.3-6.7c4.2 2.4 7.9 4.5 7.9 4.5l.5-.9s-4.7-2.6-9.5-5.4l6.5-1.5-.2-1-7.5 1.7c-1.6-.9-3.3-1.9-4.7-2.7l6.4-1.4-.2-1-7.5 1.7c-.9-.5-1.7-1-2.3-1.4l6-3.1-.5-.9-6.5 3.4c-.2-.1-.4-.2-.5-.3l-.6.8c.2.1.6.4 1.3.8l1.5 7.6 1-.2-1.3-6.7c1.1.7 2.6 1.5 4.2 2.4l1.5 7.6 1-.2-1.3-6.7 3.8 2.2 1.5 7.5.8-.1z"/>
    <path class="st12" d="M170 326s-1.3 9.1-4.2 7.9c-1.8-.1-1-5.3-.5-7.1.5-1.2-3.7.8-4.9-.1-1.2-.9 2.1-4.2 3.2-4.6 1.1-.4-2.6-.4-2.4-1.7.2-1.3 3.1-3.2 4.1-3.6 1-.4-3.3 0-3.1-1.5.2-1.5 6.1-8.7 10.3-8.6 4.3 3.1 6.5 7.3 6.8 8.6.1 1.5-2.2 1.9-2.9 1.1-.6-.9 1.7 2.5 1.4 3.7-.3 1.2-3.1 2.1-4.1 1.1-1-1.1 2.6 5.7 1.1 6.6-1.4.9-2.2 2.2-4.8-1.8z"/>
    <path class="st13" d="M162.1 325.8l6.1-3c-1.2 4.7-2.3 8.8-2.3 8.8l1 .2s1.3-5.2 2.8-10.6l3.1 5.9.9-.5-3.6-6.9c.5-1.8 1-3.6 1.4-5.2l3 5.8.9-.5-3.5-6.8c.3-1 .5-1.9.7-2.6l4.6 5 .7-.7-5-5.4c.1-.2.1-.4.2-.5l-.9-.4c-.1.2-.2.7-.4 1.4l-6.9 3.4.4.9 6.1-3c-.4 1.3-.8 2.9-1.3 4.7l-6.9 3.4.4.9 6.2-3-1.1 4.2-6.9 3.4.3 1.1z"/>
    <path class="st14" d="M148.2 302.1s-13.9 5.3-17.8 6c-2 .4-5.2.4-8.1.3-2.8-.1-5.3-.5-6.3-1-1.1-.6-2.2-1.1-3.1-1.6-.9-.5-1.6-.9-1.9-1.3l-.7.7c.5.4 1.2.9 2.1 1.4.9.5 2 1.1 3.2 1.7 1.2.6 3.8 1 6.7 1.1 3 .2 6.2.1 8.3-.3 4-.7 18-6 18-6.1l-.4-.9z"/>
    <path transform="rotate(-52.946 139.56 308.378)" class="st14" d="M135.2 307.9h8.7v1h-8.7z"/>
    <path class="st14" d="M143 304.2c-.3-.3-2.5-2.1-4.5-4-1.1-1.1-2.1-2.1-2.8-3l-.8.6c.7.9 1.8 2.1 2.9 3.2 2 2 4.3 3.8 4.6 4.1l.6-.9zm-6.2 2.2c-.3-.3-2.5-2.1-4.5-4-1.1-1.1-3.3-3.8-4-4.6l-.8.6c.7.9 3 3.7 4.1 4.8 2 2 4.3 3.8 4.6 4.1l.6-.9zm-9.8 2.1c-.4-.3-2.6-2-4.7-3.8-1.1-1-3.5-3.6-4.2-4.4l-.8.6c.8.9 3.1 3.5 4.3 4.6 2.1 1.9 4.4 3.6 4.8 3.9l.6-.9z"/>
    <path transform="rotate(-52.946 129.43 311.659)" class="st14" d="M125.1 311.2h8.7v1h-8.7z"/>
    <path transform="rotate(-41.15 116.796 311.504)" class="st14" d="M112.4 311h8.7v1h-8.7z"/>
    <path class="st14" d="M114.2 316.7c1.3-.6 1.8-2.2 1.2-3.5-.6-1.3-2.2-1.8-3.5-1.2-1.3.6-1.8 2.2-1.2 3.5.7 1.3 2.2 1.8 3.5 1.2z"/>
    <path class="st15" d="M113.6 315.5c.6-.3.9-1.1.6-1.7-.3-.6-1.1-.9-1.7-.6-.6.3-.9 1.1-.6 1.7.3.7 1.1.9 1.7.6z"/>
    <path class="st14" d="M128.6 317.4c1.3-.6 1.8-2.2 1.2-3.5-.6-1.3-2.2-1.8-3.5-1.2-1.3.6-1.8 2.2-1.2 3.5.7 1.3 2.2 1.9 3.5 1.2z"/>
    <path class="st15" d="M128 316.2c.6-.3.9-1.1.6-1.7-.3-.6-1.1-.9-1.7-.6-.6.3-.9 1.1-.6 1.7.3.7 1.1 1 1.7.6z"/>
    <path class="st14" d="M137.5 316.2c1.3-.6 1.8-2.2 1.2-3.5-.6-1.3-2.2-1.8-3.5-1.2-1.3.6-1.8 2.2-1.2 3.5s2.2 1.9 3.5 1.2z"/>
    <path class="st15" d="M136.9 315c.6-.3.9-1.1.6-1.7-.3-.6-1.1-.9-1.7-.6-.6.3-.9 1.1-.6 1.7.3.7 1.1 1 1.7.6z"/>
    <path class="st14" d="M110.7 306.9c1.3-.6 1.8-2.2 1.2-3.5-.6-1.3-2.2-1.8-3.5-1.2-1.3.6-1.8 2.2-1.2 3.5.6 1.4 2.2 1.9 3.5 1.2z"/>
    <path class="st15" d="M110.1 305.8c.6-.3.9-1.1.6-1.7-.3-.6-1.1-.9-1.7-.6-.6.3-.9 1.1-.6 1.7.3.6 1.1.9 1.7.6z"/>
    <path class="st14" d="M118 301.7c1.3-.6 1.8-2.2 1.2-3.5-.6-1.3-2.2-1.8-3.5-1.2-1.3.6-1.8 2.2-1.2 3.5.6 1.3 2.2 1.8 3.5 1.2z"/>
    <path class="st15" d="M117.4 300.5c.6-.3.9-1.1.6-1.7-.3-.6-1.1-.9-1.7-.6-.6.3-.9 1.1-.6 1.7.3.7 1 .9 1.7.6z"/>
    <path class="st14" d="M128.2 299c1.3-.6 1.8-2.2 1.2-3.5-.6-1.3-2.2-1.8-3.5-1.2-1.3.6-1.8 2.2-1.2 3.5.7 1.3 2.3 1.8 3.5 1.2z"/>
    <path class="st15" d="M127.7 297.8c.6-.3.9-1.1.6-1.7-.3-.6-1.1-.9-1.7-.6-.6.3-.9 1.1-.6 1.7.2.6 1 .9 1.7.6z"/>
    <path class="st14" d="M136.1 298.7c1.3-.6 1.8-2.2 1.2-3.5-.6-1.3-2.2-1.8-3.5-1.2-1.3.6-1.8 2.2-1.2 3.5.6 1.4 2.2 1.9 3.5 1.2z"/>
    <path class="st15" d="M135.5 297.6c.6-.3.9-1.1.6-1.7-.3-.6-1.1-.9-1.7-.6-.6.3-.9 1.1-.6 1.7.3.6 1.1.9 1.7.6z"/>
    <path class="st16" d="M150.4 291.1s-7-.4-9.8-2c-1.5-.8-3.4-2.2-5.1-3.7-1.6-1.4-3.1-3-3.7-4.1-.9-1.5-3.3-5.2-5.6-8.2-1.5-1.9-2.9-3.6-3.9-4.2-1.1-.7-2.3-1.2-3.5-1.7-1.4-.5-2.8-1-3.9-1.2l-.2 1c1 .2 2.3.6 3.7 1.1 1.2.5 2.3 1 3.4 1.6.8.5 2.2 2.1 3.6 3.9 2.3 3 4.6 6.7 5.5 8.1.7 1.2 2.2 2.8 3.9 4.3 1.8 1.6 3.8 3.1 5.3 3.9 3 1.6 10.2 2.1 10.2 2.1l.1-.9z"/>
    <path class="st16" d="M115.2 266.6c.5.4-5 3.9-7.7-1.5 2-2.4 7.2-2.5 7.7 1.5z"/>
    <path class="st17" d="M113.7 266.3c.3.3-3.1 2.4-4.8-.9 1.3-1.6 4.6-1.6 4.8.9z"/>
    <path class="st16" d="M116.9 267.3c.6-.3 2 6-4.1 6.7-1.6-2.7.2-7.7 4.1-6.7z"/>
    <path class="st17" d="M116.1 268.6c.4-.2 1.2 3.7-2.5 4.2-1-1.8.1-4.8 2.5-4.2z"/>
    <path class="st16" d="M122.5 269.7c.6-.2.7 6.3-5.3 5.8-1-3 1.7-7.5 5.3-5.8z"/>
    <path class="st17" d="M121.5 270.8c.4-.1.5 3.9-3.3 3.6-.6-1.9 1.1-4.7 3.3-3.6z"/>
    <path class="st16" d="M127.1 275.2c.6 0-.7 6.3-6.5 4.4-.2-3.1 3.4-6.9 6.5-4.4z"/>
    <path class="st17" d="M125.9 276c.4 0-.4 3.9-4 2.7-.2-1.9 2.1-4.2 4-2.7z"/>
    <path class="st16" d="M130.8 281c.6 0-.7 6.3-6.5 4.4-.2-3.2 3.4-6.9 6.5-4.4z"/>
    <path class="st17" d="M129.6 281.8c.4 0-.4 3.9-4 2.7-.2-1.9 2.1-4.2 4-2.7z"/>
    <path class="st16" d="M136.2 286.6c.6 0-.7 6.3-6.5 4.4-.3-3.1 3.4-6.8 6.5-4.4z"/>
    <path class="st17" d="M135 287.5c.4 0-.4 3.9-4 2.7-.2-2 2-4.3 4-2.7z"/>
    <path class="st16" d="M143.6 290.8c.6-.3 1.7 6.1-4.4 6.5-1.4-2.9.6-7.7 4.4-6.5z"/>
    <path class="st17" d="M142.8 292c.4-.2 1 3.8-2.7 4-1-1.7.3-4.7 2.7-4z"/>
    <path class="st16" d="M116.2 267.1c-.5.5-3.5-5.2 2.1-7.6 2.3 2.3 1.9 7.5-2.1 7.6z"/>
    <path class="st17" d="M116.6 265.7c-.3.3-2.2-3.3 1.3-4.7 1.4 1.4 1.2 4.6-1.3 4.7z"/>
    <path class="st16" d="M121.8 269.2c-.5.5-3.5-5.2 2.1-7.6 2.2 2.2 1.9 7.4-2.1 7.6z"/>
    <path class="st17" d="M122.2 267.8c-.3.3-2.2-3.3 1.3-4.7 1.4 1.3 1.2 4.6-1.3 4.7z"/>
    <path class="st16" d="M127.2 275c-.5.5-3.5-5.2 2.1-7.6 2.3 2.3 1.9 7.5-2.1 7.6z"/>
    <path class="st17" d="M127.6 273.6c-.3.3-2.2-3.3 1.3-4.7 1.4 1.4 1.2 4.6-1.3 4.7z"/>
    <path class="st16" d="M131.7 281.5c-.5.5-3.5-5.2 2.1-7.6 2.2 2.3 1.8 7.5-2.1 7.6z"/>
    <path class="st17" d="M132.1 280.1c-.3.3-2.2-3.3 1.3-4.7 1.4 1.4 1.1 4.6-1.3 4.7z"/>
    <path class="st16" d="M135.9 286.6c-.5.5-3.5-5.2 2.1-7.6 2.2 2.3 1.9 7.5-2.1 7.6z"/>
    <path class="st17" d="M136.3 285.2c-.3.3-2.2-3.3 1.3-4.7 1.4 1.4 1.2 4.6-1.3 4.7z"/>
    <path class="st16" d="M142.9 290.8c-.3.6-5-3.9-.3-7.8 2.8 1.4 4 6.5.3 7.8z"/>
    <path class="st17" d="M142.8 289.4c-.2.4-3.1-2.4-.2-4.9 1.8.9 2.5 4 .2 4.9z"/>
    <path class="st18" d="M161.3 306.9c4-2 5.6-6.8 3.6-10.8-2-4-6.8-5.6-10.8-3.6-4 2-5.6 6.8-3.6 10.8 2 4 6.9 5.6 10.8 3.6z"/>
    <path class="st11" d="M159 302.2c1.4-.7 1.9-2.4 1.2-3.7-.7-1.4-2.4-1.9-3.7-1.2-1.4.7-1.9 2.4-1.2 3.7.6 1.3 2.3 1.9 3.7 1.2z"/>
    <path class="st19" d="M154.1 302.7s.3 1.5 0 2.8c1.7-.7 3.6-1 4.3.2 0 0 .5.3 1.1.7 0-1.8.6-3.5 1.8-3.7 0 0 1.5-1.2 3-1.5-1.9-1-3.7-2.8-2.9-4.3 0 0-.1-1.2.2-2.4-1.8.2-3.8-.1-4.1-1.4 0 0-.7-.7-1.3-1.7.6 2.1-.1 6.1-2.1 6.2 0 0-1.6 1-3.1 1.1 1.8 1 3.7 2.6 3.1 4zm1.7-12.1c-.2-.7-.3-1.5.2-2.2 1.4-2 3.8-1.4 5.1-2.9 1.3-1.6 2.3 1.6 3.5 2.9.9.9 1.3 2.8.8 4.2 1.4.4 2.5 1.3 3.9 1.1 2-.3.6 2.8.7 4.4.1 1.6-1.5 4-3.5 4 1.6 1.6.8 3.8 2.2 5.2 1.4 1.5-1.9 2.1-3.2 3.1-1.1.8-3.2 1-4.6.1-1 1.8-3.1 2-3.9 3.7-.8 1.9-2.7-.9-4.1-1.8-1.3-.8-2.4-3.1-1.7-4.8-1.7 0-3.1-1.2-4.7-.7-2 .5-.9-2.7-1.2-4.3-.3-1.7 1.1-4.3 3.2-4.4h.6c-.1-.1-.2-.1-.2-.2-1.7-1.8-.5-4-1.8-5.6-1.3-1.6 2.1-1.9 3.5-2.8 1.5-.6 4.1-.5 5.2 1z"/>
    <path class="st16" d="M156.5 285c-13.2.9-15.2-4.8-15.3-17.1 0-1.2 4.7 3.6 5.9 4.3 1.2.7 5.6 2.5 7.1 4.1 1.5 1.7 2.9 4.4 2.3 8.7z"/>
    <path class="st17" d="M156.5 285c-3.5.2-6.2 0-8.3-.7-.4-.1-3.5-4-2.3-5.1.4-.4 5 2.6 5.4 2 .9-1.5 1.4-3.6.3-6.7 1.1.6 2.1 1.2 2.6 1.9 1.5 1.6 2.9 4.3 2.3 8.6z"/>
    <path class="st20" d="M170.6 280c2.1-1 2.9-3.5 1.9-5.6-1-2.1-3.5-2.9-5.6-1.9-2.1 1-2.9 3.5-1.9 5.6 1.1 2.1 3.6 2.9 5.6 1.9z"/>
    <path class="st21" d="M171.6 275.8s2.9.7 3.9-.7c1-1.3 1.9-2.9 2.4-3.7.5-.8-3-2.2-4.9-1.5-1.9.8-2.6 2.2-2.7 3.2-.2 1.1 0 2.6 1.3 2.7z"/>
    <path class="st21" d="M170.6 279.4s1.6 2.5 3.3 2.2c1.7-.2 3.3-.8 4.3-1 .9-.2-.6-3.7-2.5-4.5-1.9-.8-3.4-.3-4.2.4-.9.7-1.7 1.9-.9 2.9z"/>
    <path class="st21" d="M167.9 278.8s-2.4 1.7-2.1 3.4c.3 1.7.9 3.3 1.1 4.2.3.9 3.7-.8 4.4-2.7.7-1.9.1-3.4-.5-4.2-.8-.7-1.9-1.5-2.9-.7z"/>
    <path class="st21" d="M166.7 276.8s-2.5-1.6-3.9-.7c-1.4.9-2.8 2-3.5 2.6-.8.6 2.1 3.2 4.1 3.1 2-.1 3.2-1.1 3.7-2 .4-1 .7-2.4-.4-3z"/>
    <path class="st21" d="M166.6 275.2s.7-2.9-.7-3.9c-1.3-1-2.9-1.9-3.7-2.4-.8-.5-2.2 3-1.5 4.9.8 1.9 2.2 2.6 3.2 2.8 1.1.1 2.5-.1 2.7-1.4z"/>
    <path class="st21" d="M169.5 273.6s2.3-1.9 1.9-3.5c-.4-1.6-1.1-3.2-1.4-4.1-.3-.9-3.6 1-4.2 2.9-.6 1.9.1 3.4.8 4.1.8.8 2 1.5 2.9.6z"/>
    <path class="st22" d="M168.5 280.7c.3-.1.4-.5.3-.8-.1-.3-.5-.4-.8-.3-.3.1-.4.5-.3.8.2.3.5.4.8.3zm-1.9-1c.3-.1.4-.5.3-.8-.1-.3-.5-.4-.8-.3-.3.1-.4.5-.3.8.2.3.6.4.8.3zm-.8-1.7c.3-.1.4-.5.3-.8-.1-.3-.5-.4-.8-.3-.3.1-.4.5-.3.8.2.3.5.4.8.3zm0-2.2c.3-.1.4-.5.3-.8-.1-.3-.5-.4-.8-.3-.3.1-.4.5-.3.8.1.3.5.5.8.3z"/>
    <path class="st23" d="M234.6 275.8c11-4.6 22-13.6 27-24.7 1-2.1 1.9-6 2.7-9.3.5-1.9.9-3.7 1.3-4.7l-.9-.3c-.3 1-.8 2.8-1.3 4.8-.8 3.3-1.8 7.1-2.7 9.2-4.9 10.8-15.8 19.7-26.5 24.2l.4.8z"/>
    <path class="st23" d="M259.5 263.2s-2.9 3-6.2-.9c1.4-2.7 5.9-.7 6.2.9z"/>
    <path class="st24" d="M259.5 263.2s-2.9 3-6.2-.9c2-.1 3.1 1.8 6.2.9z"/>
    <path class="st23" d="M262.9 259.2s-2.9 3-6.2-.9c1.4-2.7 5.9-.7 6.2.9z"/>
    <path class="st24" d="M262.9 259.2s-2.9 3-6.2-.9c2-.1 3.2 1.8 6.2.9z"/>
    <path class="st23" d="M265.9 253.3s-2 3.7-6.2.8c.6-3 5.5-2.3 6.2-.8z"/>
    <path class="st24" d="M265.9 253.3s-2 3.7-6.2.8c2-.7 3.5.9 6.2-.8z"/>
    <path class="st23" d="M268.3 248.5s-2 3.7-6.2.8c.6-3 5.4-2.3 6.2-.8z"/>
    <path class="st24" d="M268.3 248.5s-2 3.7-6.2.8c1.9-.7 3.5.9 6.2-.8z"/>
    <path class="st23" d="M269.8 242.9s-2 3.7-6.2.8c.6-3 5.5-2.2 6.2-.8z"/>
    <path class="st24" d="M269.8 242.9s-2 3.7-6.2.8c1.9-.6 3.5.9 6.2-.8z"/>
    <path class="st23" d="M270.9 238.4s-2 3.7-6.2.8c.6-3 5.5-2.2 6.2-.8z"/>
    <path class="st24" d="M270.9 238.4s-2 3.7-6.2.8c1.9-.6 3.5.9 6.2-.8z"/>
    <path class="st23" d="M264.8 229.6s4.6 2.7.6 7.9c-3.7-1-2.4-7.1-.6-7.9z"/>
    <path class="st24" d="M264.8 229.6s4.6 2.7.6 7.9c-.6-2.5 1.4-4.4-.6-7.9z"/>
    <path class="st23" d="M259.1 235.6s0 4.2 5.1 3.6c.8-2.8-3.8-4.5-5.1-3.6z"/>
    <path class="st24" d="M259.1 235.6s0 4.2 5.1 3.6c-1.4-1.4-3.6-.8-5.1-3.6z"/>
    <path class="st23" d="M258.1 239.8s0 4.2 5.1 3.6c.9-2.9-3.8-4.6-5.1-3.6z"/>
    <path class="st24" d="M258.1 239.8s0 4.2 5.1 3.6c-1.4-1.5-3.5-.9-5.1-3.6z"/>
    <path class="st23" d="M257.5 244.3s-1 4.1 4.1 4.7c1.5-2.7-2.6-5.3-4.1-4.7z"/>
    <path class="st24" d="M257.5 244.3s-1 4.1 4.1 4.7c-1-1.8-3.2-1.7-4.1-4.7z"/>
    <path class="st23" d="M255.3 248.9s-1 4.1 4.1 4.7c1.5-2.6-2.6-5.3-4.1-4.7z"/>
    <path class="st24" d="M255.3 248.9s-1 4.1 4.1 4.7c-1-1.7-3.2-1.6-4.1-4.7z"/>
    <path class="st23" d="M252.6 253.3s-1 4.1 4.1 4.7c1.6-2.7-2.6-5.3-4.1-4.7z"/>
    <path class="st24" d="M252.6 253.3s-1 4.1 4.1 4.7c-1-1.8-3.2-1.7-4.1-4.7z"/>
    <path class="st23" d="M249.3 257.4s-1 4.1 4.1 4.7c1.5-2.6-2.6-5.3-4.1-4.7z"/>
    <path class="st24" d="M249.3 257.4s-1 4.1 4.1 4.7c-1-1.7-3.2-1.6-4.1-4.7z"/>
  </g>
</svg>
