<svg version="1.1" id="Layer_1" xmlns="http://www.w3.org/2000/svg" x="0" y="0" viewBox="0 0 794.6 209.5" xml:space="preserve"><style>.st1{fill:#1e1e1e}</style><path d="M-.2 180.5h58.7v29.4H-.2zm117.4 0H264v29.4H117.2zm205.5 0h190.8v29.4H322.7zm249.6 0h220.2v29.4H572.3z" fill="#4664af"/><path class="st1" d="M392.5 4H282.4v26.9h40.3v105.2h29.4V30.9h40.4zM90.9 4L29.1 89.7V4H-.2v132.1h26.3l61.8-85.6v85.6h29.3V4zm422.7 26.9V4H410.8v132.1h102.8v-26.9h-73.4V82.9h70.9V57.2h-70.9V30.9zM234.7 4v50.8h-57.5V4h-29.4v132.1h29.4V82.9h57.5v53.2H264V4zM724 .3c-39.8 0-70.3 31.2-70.3 69.7s30.6 69.7 70.3 69.7c39.8 0 70.3-31.2 70.3-69.7C794.3 31.6 763.7.3 724 .3zm0 111.4c-26.1 0-41-19.3-41-41.6s14.9-41.6 41-41.6 41 19.3 41 41.6-14.9 41.6-41 41.6z"/><path class="st1" d="M657.3 4h-35.1L584 56h-13.5V4h-29.4v132.3h29.4v-52H584l38.2 52h35.1l-49.6-66.2z"/></svg>