<svg width="48" height="48" viewBox="0 0 48 48" fill="none" xmlns="http://www.w3.org/2000/svg"><path d="M0 24C0 10.745 10.745 0 24 0s24 10.745 24 24-10.745 24-24 24S0 37.255 0 24z" fill="#333"/><path d="M19.2 38.4a4.8 4.8 0 004.8-4.8v-4.8h-4.8a4.8 4.8 0 000 9.6z" fill="#0ACF83"/><path d="M14.4 24a4.8 4.8 0 014.8-4.8H24v9.6h-4.8a4.8 4.8 0 01-4.8-4.8z" fill="#A259FF"/><path d="M14.4 14.4a4.8 4.8 0 014.8-4.8H24v9.6h-4.8a4.8 4.8 0 01-4.8-4.8z" fill="#F24E1E"/><path d="M24 9.6h4.8a4.8 4.8 0 110 9.6H24V9.6z" fill="#FF7262"/><path d="M33.6 24a4.8 4.8 0 11-9.6 0 4.8 4.8 0 019.6 0z" fill="#1ABCFE"/></svg>