<svg xmlns="http://www.w3.org/2000/svg" width="351.379" height="523.599" viewBox="0 0 351.379 523.599"><path d="M338.097 156.472c11.82-46.441-2.54-64.372-9.408-69.991-7.44-6.087-21.439-6.361-34.977-6.624-3.469-.068-8.149-.159-11.385-.443.582-11.276 1.529-36.585-23.99-51.543-13.628-7.99-29.297-9.968-44.123-5.569-5.176 1.536-9.993 3.794-14.026 6.474C191.374 9.79 180.88.522 168.294.522c-4.377 0-15.696 1.219-26.354 3.188-20.66 3.818-25.545 7.912-27.75 11.768-1.032 1.806-2.076 3.942-3.101 6.092C100.825 8.253 91.398 1.193 82.989.546 63.718-.936 39.216-.116 31.939 12.212 29.065 17.079 8.938 57.629 5.83 68.711c-1.725 5.326-1.354 13.124-.643 23.505.23 3.347.542 7.884.399 9.407-8.067 26.196-5.637 60.756-3.49 91.264 1.489 21.163 2.897 41.151.047 51.778-4.906 18.278 18.157 40.325 56.724 74.462 12.862 11.386 25.011 22.139 34.137 31.77 12.37 13.054 13.33 18.105 13.33 19.343 0 10.496-3.137 32.496-6.17 53.771-8.472 59.401-8.823 70.839-2.356 76.499 6.431 5.627 48.687 13.931 75.22 17.773 19.362 2.801 42.962 5.316 65.329 5.316 16.605 0 32.531-1.387 45.53-5.068 17.19-4.87 27.782-13.403 31.478-25.363 7.409-23.967 5.234-51.628 3.131-78.38-2.417-30.739-4.699-59.775 7.673-78.775 12.678-19.472 22.102-55.152 24.591-93.116 1.194-18.212 2.209-61.832-12.663-86.425"/><path d="M316.106 320.95c-4.063 6.099-9.371 11.645-15.741 15.99-6.988 4.762-15.342 8.101-24.435 8.652 8.841 2.178 18.643 1.566 27.882-1.277.33-.102.654-.225.982-.332-6.519 21.321-4.498 47.032-2.528 72.081 1.981 25.225 4.032 51.308-2.455 72.297-1.562 5.05-6.027 9.041-13.651 12.202-19.037 7.895-55.358 8.881-102.274 2.778-1.074-.14-2.142-.282-3.204-.426l5.25-99.887-15.136 98.465c-30.037-4.568-53.648-10.415-61.112-13.039-.913-9.474 3.562-40.855 6.597-62.145 3.258-22.842 6.334-44.418 6.334-56.069 0-.206-.017-.415-.025-.622a76.67 76.67 0 004.408 1.218c9.294 2.259 18.965 2.689 28.201 1.193a69.037 69.037 0 0025.69-9.656c7.692-4.808 14.317-10.977 19.741-17.913-6.427 6.026-13.761 10.942-21.631 14.307-7.859 3.383-16.261 5.121-24.517 5.152-8.264.042-16.362-1.639-23.787-4.72-7.004-2.895-13.396-7.017-19.102-11.917-9.111-11.041-23.523-24.049-41.935-40.347-14.036-12.424-28.551-25.27-38.725-36.491-13.846-15.267-13.313-20.639-13.066-21.561 3.558-13.264 2.128-33.596.47-57.139-1.528-21.738-3.204-45.63-.96-66.039 1.433 1.778 3.043 3.417 4.861 4.808 3.139 2.458 6.883 3.966 10.633 4.747 3.768.784 7.582.886 11.335.684-3.752-.247-7.488-.813-10.978-1.993-3.482-1.178-6.708-2.98-9.226-5.5-2.503-2.452-4.391-5.442-5.85-8.645.75-4.828 1.753-9.419 3.083-13.678.229-.732.391-1.518.496-2.393a41.294 41.294 0 014.863-4.997c1.686.112 3.384.342 5.064.671 4.032.794 7.989 2.156 11.646 4.125 3.645 1.984 6.972 4.609 9.691 7.834a34.215 34.215 0 013.565 5.248c1.014 1.874 1.822 3.862 2.514 5.901-.472-2.097-1.072-4.182-1.903-6.193a35.11 35.11 0 00-3.091-5.771c-2.464-3.643-5.684-6.803-9.354-9.33-3.682-2.515-7.773-4.432-12.067-5.76a51.66 51.66 0 00-1.222-.353c13.006-8.355 30.607-9.918 51.553-11.769 7.262-.642 14.833-1.313 22.659-2.303.107 8.213 2.751 15.903 7.488 21.329 4.279 4.901 9.933 7.6 15.926 7.6 10.021 0 32.401-7.824 44.875-18.405-.283 3.993-1.177 8.621-2.972 13.964-6.325 18.841-22.32 34.099-43.882 41.863l1.653 4.593-1.653-4.593c-4.018 1.898-8.48 3.395-13.053 4.621-4.581 1.224-9.3 2.182-14.07 2.944a185.877 185.877 0 01-29.127 2.274 188.463 188.463 0 0029.477 3.141c3.625.095 7.268.077 10.931-.086 1.342 2.522 2.526 4.994 3.419 7.441 1.14 3.119 1.793 6.167 1.67 8.92-.13 2.741-1.121 5.21-3.09 7.519-.55.533-1.013 1.146-1.632 1.664l-1.937 1.533c-.698.475-1.468.893-2.207 1.354-.392.23-.703.447-1.167.692l-1.384.733c-7.329 3.992-14.04 9.028-19.473 15.239-2.692 3.105-5.093 6.517-6.698 10.326-.786 1.901-1.382 3.904-1.551 5.955a13.012 13.012 0 00.123 3.058c.191 1 .518 1.96.979 2.837a9.93 9.93 0 01-.473-2.884c.014-.969.141-1.921.376-2.847.48-1.851 1.339-3.576 2.352-5.181 2.057-3.21 4.787-5.946 7.734-8.35 5.927-4.802 12.813-8.297 19.909-10.701l1.337-.436c.445-.144 1.013-.379 1.515-.566 1.035-.41 2.083-.779 3.115-1.245l3.065-1.646c.308-.181.61-.382.911-.591.303.703.592 1.436.846 2.22.965 2.833 1.698 5.961 2.269 9.154 1.126 6.41 1.652 13.124 1.683 19.847.033 6.73-.409 13.512-1.557 20.192-.58 3.338-1.337 6.654-2.409 9.88-1.08 3.217-2.454 6.371-4.491 9.183 2.547-2.359 4.599-5.29 6.348-8.35 1.746-3.074 3.198-6.315 4.472-9.62 2.54-6.622 4.385-13.505 5.74-20.506 1.356-7.011 2.222-14.142 2.392-21.5.004-.166 0-.335.004-.501 57.136-9.697 111.575 86.99 78.278 136.606 7.01.678 17.411-19.334 18.429-20.012.359-.24 4.53 3.415 10.128 7.806l3.1 148.335 7.159-140.87c8.235 5.407 16.65 9.171 20.316 4.741-10.176-4.409-20.691-17.298-29.864-31.545-11.094-17.227-19.896-41.411-10.161-70.551 9.736-29.14 44.095-17.299 56.985-22.726 4.089-1.722 9.374-7.611 14.617-14.751 10.094-9.742 18.563-23.048 23.577-31.828 15.526 32.136 10.323 113.839-9.89 152.639M21.321 73.719l.166-.545c1.4-5.241 9.682-22.995 16.288-36.545a21.54 21.54 0 012.269-2.132c1.818-1.505 3.879-2.857 6.05-4.045a50.422 50.422 0 0114.104-5.125c4.951-.995 10.124-1.192 15.116-.107 4.984 1.055 9.738 3.571 13.382 7.417-3.106-4.274-7.67-7.571-12.819-9.374-5.147-1.837-10.732-2.354-16.203-1.973a55.497 55.497 0 00-16.051 3.587c1.07-2.094 1.881-3.623 2.303-4.339 2.001-2.577 15.561-5.316 35.814-3.759 3.006.231 11.481 6.614 22.519 23.251l.189.283c.541.811 1.24 1.914 2.036 3.054.296 4.418.754 9.455 1.225 14.637.359 3.957.726 7.996 1.005 11.661-9.248 1.318-18.183 2.113-26.678 2.864-23.864 2.109-45.055 3.989-60.747 16.468-.352-5.329-.759-12.977.032-15.278" fill="#FFF"/><path d="M127.562 89.395c-.248-4.206-1.989-8.022-4.89-11.06 11.81-2.301 24.081-5.694 36.679-11.092.879-.355 4.443.149 8.023 3.519 2.041 1.921 5.396 6.135 6.381 13.61-9.252 10.43-33.978 20.168-44.692 20.168-2.432 0-4.747-.609-6.886-1.752 3.637-3.276 5.689-8.21 5.385-13.393" fill="#FFF"/><path d="M119.419 78.956c3.267 2.737 5.187 6.405 5.434 10.599.272 4.615-1.672 8.984-5.058 11.695a19.083 19.083 0 01-2.568-2.451c-4.027-4.612-6.206-11.31-6.154-18.501a248.73 248.73 0 008.346-1.342" fill="#FFF"/><path d="M123.284 30.224c1.208-1.858 2.406-3.912 4.591-5.849 5.699-3.44 32.272-7.572 40.419-7.572 3.362 0 6.551 2.359 9.439 5.877a74.063 74.063 0 00-17.164-1.383c-5.887.217-11.785 1.096-17.335 3.076-5.516 1.951-10.759 5.103-14.312 9.729 3.908-4.33 9.243-6.962 14.719-8.434 5.506-1.493 11.254-1.891 16.922-1.658a70.582 70.582 0 0116.702 2.71 53.45 53.45 0 014.256 1.44c2.836 4.759 5.239 10.255 7.043 14.93l-.132.106c5.475 8.627 2.844 95.072-5.398 120.258-1.933 5.909-6.465 9.815-13.467 11.611-12.657 3.245-29.925-1.334-39.069-7.935-.576-3.381.088-6.889 1.066-9.841 24.292-8.988 42.384-26.546 49.692-48.308 9.299-27.692-1.555-41.616-6.652-46.317-6.097-5.622-13.941-7.792-19.529-5.398-12.13 5.199-24.069 8.433-35.612 10.619a921.196 921.196 0 00-.944-10.864c-.448-4.925-.903-9.931-1.197-14.247.748-2.784 2.218-6.792 5.962-12.55m81.235 16.451c.923-1.848 6.075-6.316 14.327-8.765 7.397-2.195 18.827-3.282 31.258 4.006 6.37 3.734 10.274 8.374 12.648 13.249a83.198 83.198 0 00-1.768-1.172c-4.82-3.077-9.883-5.727-15.248-7.672-5.341-1.917-11.033-3.264-16.784-2.887-2.856.197-5.705.89-8.226 2.202-2.529 1.3-4.669 3.211-6.303 5.429 1.897-2.005 4.199-3.576 6.715-4.499 2.513-.935 5.197-1.239 7.839-1.097 5.306.307 10.403 2.193 15.141 4.587 4.751 2.416 9.179 5.484 13.262 8.865 2.035 1.698 3.981 3.495 5.757 5.377a39.548 39.548 0 012.487 2.869c.143.186.283.376.422.565.366 4.17.166 8.088-.003 11.311-.14 2.71-1.18 11.864-1.744 15.787-7.993 24.303-24.613 69.994-31.429 81.028-2.519 4.081-9.019 6.264-17.391 5.82-10.011-.522-20.142-4.588-24.495-9.52a28.43 28.43 0 002.367-5.328c4.775-14.593 7.543-46.762 8.462-69.876.527-13.256.731-28.4-.195-40.412zm88.876 49.46c7.108.139 21.904.427 24.983 2.947 2.645 2.164 4.938 5.889 6.381 11.274-2.535-1.694-5.178-3.227-7.979-4.477-4.613-2.044-9.765-3.449-14.9-2.807-2.543.318-5.002 1.197-7.1 2.556-2.107 1.352-3.845 3.138-5.283 5.089 1.697-1.736 3.633-3.217 5.774-4.197a15.471 15.471 0 016.734-1.417c4.601.075 8.971 1.946 12.872 4.375 3.922 2.453 7.454 5.556 10.638 8.926.229.245.443.503.67.751.667 9.036-.498 20.955-4.581 35.998l-.676-.335c-9.028 18.216-28.596 46.96-42.875 46.96l-.208-.002c-19.421-.381-30.514-18.58-31.383-28.804 8.436-18.49 22.298-56.144 29.093-77.561 1.176-.103 2.384-.123 3.601.029 3.951.494 8.948.592 14.239.695" fill="#FFF"/></svg>