<svg viewBox="0 0 40 40" xmlns="http://www.w3.org/2000/svg"><path clip-rule="evenodd" d="M18.4 8.1c7.8-1 14.5 5.6 13.5 13.5-.7 5.3-5 9.7-10.3 10.3-7.8 1-14.5-5.6-13.5-13.5.7-5.3 5-9.6 10.3-10.3z" fill="#ECF0F1" fill-rule="evenodd"/><path d="M16.7 31.3v-3.9c-.6.1-1 .1-1.2.1-1.2 0-2.1-.6-2.6-1.7-.2-.4-.4-.8-.6-1.1-.1-.1-.2-.2-.4-.3-.2-.2-.3-.3-.5-.4-.2-.1-.2-.2-.2-.3 0-.1.2-.2.5-.2.7 0 1.2.4 1.5.8.3.5.7 1 1.2 1.3.3.2.6.3.9.3.5 0 .9-.1 1.4-.2.2-.6.5-1.2 1.1-1.5-3.7-.4-5.5-1.7-5.5-5.2 0-1.3.4-2.5 1.2-3.4-.2-.5-.2-.9-.2-1.4 0-.7.2-1.3.5-1.8 1.3 0 2.1.4 3.4 1.4.9-.2 1.8-.3 2.9-.3.9 0 1.8.1 2.6.3 1.3-.9 2.1-1.3 3.4-1.3.3.6.5 1.2.5 1.8 0 .5-.1.9-.2 1.4.8.9 1.2 2 1.2 3.4 0 3.5-1.8 4.9-5.5 5.2.8.5 1.2 1.3 1.2 2.2v4.8h-6.6z" fill="#9B59B6"/><path d="M18.3 7.1c-5.8.7-10.5 5.4-11.2 11.2C6 26.8 13.2 34 21.7 32.9c5.8-.7 10.5-5.4 11.2-11.2C34 13.2 26.8 6 18.3 7.1zm12.5 14.8c-.7 4.6-4.4 8.2-9 9-7.5 1.2-13.9-5.2-12.7-12.7.7-4.6 4.4-8.2 9-9 7.6-1.3 14 5.1 12.7 12.7z" fill="#9B59B6"/></svg>